{
	"patcher" : 	{
		"fileversion" : 1,
		"appversion" : 		{
			"major" : 8,
			"minor" : 0,
			"revision" : 4,
			"architecture" : "x64",
			"modernui" : 1
		}
,
		"classnamespace" : "box",
		"rect" : [ 291.0, 79.0, 1413.0, 1005.0 ],
		"bglocked" : 0,
		"openinpresentation" : 1,
		"default_fontsize" : 10.0,
		"default_fontface" : 0,
		"default_fontname" : "Arial",
		"gridonopen" : 1,
		"gridsize" : [ 15.0, 15.0 ],
		"gridsnaponopen" : 1,
		"objectsnaponopen" : 1,
		"statusbarvisible" : 2,
		"toolbarvisible" : 1,
		"lefttoolbarpinned" : 0,
		"toptoolbarpinned" : 0,
		"righttoolbarpinned" : 0,
		"bottomtoolbarpinned" : 0,
		"toolbars_unpinned_last_save" : 0,
		"tallnewobj" : 0,
		"boxanimatetime" : 200,
		"enablehscroll" : 1,
		"enablevscroll" : 1,
		"devicewidth" : 0.0,
		"description" : "",
		"digest" : "",
		"tags" : "",
		"style" : "",
		"subpatcher_template" : "",
		"boxes" : [ 			{
				"box" : 				{
					"id" : "obj-3",
					"maxclass" : "newobj",
					"numinlets" : 1,
					"numoutlets" : 2,
					"outlettype" : [ "int", "int" ],
					"patching_rect" : [ 1200.83331298828125, 365.0, 39.0, 20.0 ],
					"text" : "t 0 100"
				}

			}
, 			{
				"box" : 				{
					"id" : "obj-72",
					"maxclass" : "message",
					"numinlets" : 2,
					"numoutlets" : 1,
					"outlettype" : [ "" ],
					"patching_rect" : [ 399.33331298828125, 444.5, 36.0, 20.0 ],
					"text" : "set $1"
				}

			}
, 			{
				"box" : 				{
					"id" : "obj-71",
					"maxclass" : "message",
					"numinlets" : 2,
					"numoutlets" : 1,
					"outlettype" : [ "" ],
					"patching_rect" : [ 277.566563785076141, 444.5, 36.0, 20.0 ],
					"text" : "set $1"
				}

			}
, 			{
				"box" : 				{
					"id" : "obj-65",
					"maxclass" : "newobj",
					"numinlets" : 2,
					"numoutlets" : 1,
					"outlettype" : [ "" ],
					"patching_rect" : [ 399.33331298828125, 414.999968886375427, 102.0, 20.0 ],
					"text" : "expr ($f1 / $f2) * 100."
				}

			}
, 			{
				"box" : 				{
					"id" : "obj-69",
					"maxclass" : "newobj",
					"numinlets" : 2,
					"numoutlets" : 1,
					"outlettype" : [ "" ],
					"patching_rect" : [ 277.566563785076141, 414.999968886375427, 102.0, 20.0 ],
					"text" : "expr ($f1 / $f2) * 100."
				}

			}
, 			{
				"box" : 				{
					"id" : "obj-57",
					"maxclass" : "newobj",
					"numinlets" : 2,
					"numoutlets" : 1,
					"outlettype" : [ "" ],
					"patching_rect" : [ 1291.3333740234375, 248.800023138523102, 47.0, 20.0 ],
					"text" : "pak 0. 0."
				}

			}
, 			{
				"box" : 				{
					"id" : "obj-58",
					"maxclass" : "newobj",
					"numinlets" : 2,
					"numoutlets" : 1,
					"outlettype" : [ "" ],
					"patching_rect" : [ 1291.3333740234375, 276.733343183994293, 100.0, 20.0 ],
					"text" : "expr ($f1 / 100) * $f2"
				}

			}
, 			{
				"box" : 				{
					"id" : "obj-48",
					"maxclass" : "newobj",
					"numinlets" : 2,
					"numoutlets" : 1,
					"outlettype" : [ "" ],
					"patching_rect" : [ 1169.566624820232391, 248.800023138523102, 47.0, 20.0 ],
					"text" : "pak 0. 0."
				}

			}
, 			{
				"box" : 				{
					"id" : "obj-41",
					"maxclass" : "newobj",
					"numinlets" : 2,
					"numoutlets" : 1,
					"outlettype" : [ "" ],
					"patching_rect" : [ 1169.566624820232391, 276.733343183994293, 100.0, 20.0 ],
					"text" : "expr ($f1 / 100) * $f2"
				}

			}
, 			{
				"box" : 				{
					"fontsize" : 10.0,
					"id" : "obj-22",
					"maxclass" : "newobj",
					"numinlets" : 1,
					"numoutlets" : 3,
					"outlettype" : [ "", "int", "int" ],
					"patching_rect" : [ 502.133312988281261, 334.333324432373047, 52.0, 20.0 ],
					"text" : "change 0."
				}

			}
, 			{
				"box" : 				{
					"fontsize" : 10.0,
					"id" : "obj-19",
					"maxclass" : "newobj",
					"numinlets" : 1,
					"numoutlets" : 3,
					"outlettype" : [ "", "int", "int" ],
					"patching_rect" : [ 576.533312988281295, 334.333324432373047, 52.0, 20.0 ],
					"text" : "change 0."
				}

			}
, 			{
				"box" : 				{
					"fontsize" : 9.0,
					"id" : "obj-47",
					"maxclass" : "comment",
					"numinlets" : 1,
					"numoutlets" : 0,
					"patching_rect" : [ 159.783294320106506, 328.833332300186157, 22.0, 17.0 ],
					"presentation" : 1,
					"presentation_rect" : [ 203.666678816080093, 88.5, 22.0, 17.0 ],
					"text" : ":→",
					"textcolor" : [ 0.835294117647059, 0.83921568627451, 0.894117647058824, 1.0 ]
				}

			}
, 			{
				"box" : 				{
					"fontsize" : 9.0,
					"id" : "obj-42",
					"maxclass" : "comment",
					"numinlets" : 1,
					"numoutlets" : 0,
					"patching_rect" : [ 125.933319091796875, 328.833332300186157, 27.0, 17.0 ],
					"presentation" : 1,
					"presentation_rect" : [ 119.29998779296875, 88.5, 22.0, 17.0 ],
					"text" : "←:",
					"textcolor" : [ 0.835294117647059, 0.83921568627451, 0.894117647058824, 1.0 ]
				}

			}
, 			{
				"box" : 				{
					"activebgcolor" : [ 0.325490196078431, 0.345098039215686, 0.372549019607843, 0.6 ],
					"activeslidercolor" : [ 0.427451, 0.843137, 1.0, 1.0 ],
					"activetricolor" : [ 0.647059, 0.647059, 0.647059, 1.0 ],
					"activetricolor2" : [ 0.427451, 0.843137, 1.0, 1.0 ],
					"bordercolor" : [ 0.12156862745098, 0.12156862745098, 0.12156862745098, 0.0 ],
					"focusbordercolor" : [ 0.196078431372549, 0.196078431372549, 0.196078431372549, 0.4 ],
					"fontsize" : 8.0,
					"id" : "obj-39",
					"inactivelcdcolor" : [ 0.54902, 0.54902, 0.54902, 1.0 ],
					"lcdbgcolor" : [ 0.156863, 0.156863, 0.156863, 1.0 ],
					"lcdcolor" : [ 1.0, 0.709804, 0.196078, 1.0 ],
					"maxclass" : "live.numbox",
					"numinlets" : 1,
					"numoutlets" : 2,
					"outlettype" : [ "", "float" ],
					"parameter_enable" : 1,
					"patching_rect" : [ 945.958315245807171, 416.5, 40.0, 13.0 ],
					"presentation" : 1,
					"presentation_rect" : [ 172.20001220703125, 91.25, 35.0, 13.0 ],
					"saved_attribute_attributes" : 					{
						"valueof" : 						{
							"parameter_longname" : "select end",
							"parameter_initial_enable" : 1,
							"parameter_mmax" : 100.0,
							"parameter_initial" : [ 0 ],
							"parameter_shortname" : "select end",
							"parameter_type" : 0,
							"parameter_unitstyle" : 5,
							"parameter_linknames" : 1
						}

					}
,
					"textcolor" : [ 0.4274509804, 0.8327725118, 1.0, 1.0 ],
					"tricolor" : [ 0.764706, 0.764706, 0.764706, 1.0 ],
					"tricolor2" : [ 0.647059, 0.647059, 0.647059, 1.0 ],
					"varname" : "select end"
				}

			}
, 			{
				"box" : 				{
					"activebgcolor" : [ 0.325490196078431, 0.345098039215686, 0.372549019607843, 0.6 ],
					"activeslidercolor" : [ 0.427451, 0.843137, 1.0, 1.0 ],
					"activetricolor" : [ 0.647059, 0.647059, 0.647059, 1.0 ],
					"activetricolor2" : [ 0.427451, 0.843137, 1.0, 1.0 ],
					"bordercolor" : [ 0.12156862745098, 0.12156862745098, 0.12156862745098, 0.0 ],
					"focusbordercolor" : [ 0.196078431372549, 0.196078431372549, 0.196078431372549, 0.4 ],
					"fontsize" : 8.0,
					"id" : "obj-37",
					"inactivelcdcolor" : [ 0.54902, 0.54902, 0.54902, 1.0 ],
					"lcdbgcolor" : [ 0.156863, 0.156863, 0.156863, 1.0 ],
					"lcdcolor" : [ 1.0, 0.709804, 0.196078, 1.0 ],
					"maxclass" : "live.numbox",
					"numinlets" : 1,
					"numoutlets" : 2,
					"outlettype" : [ "", "float" ],
					"parameter_enable" : 1,
					"patching_rect" : [ 883.033314794301987, 416.5, 40.0, 13.0 ],
					"presentation" : 1,
					"presentation_rect" : [ 136.0, 91.25, 35.0, 13.0 ],
					"saved_attribute_attributes" : 					{
						"valueof" : 						{
							"parameter_longname" : "select start",
							"parameter_initial_enable" : 1,
							"parameter_mmax" : 100.0,
							"parameter_initial" : [ 0 ],
							"parameter_shortname" : "select start",
							"parameter_type" : 0,
							"parameter_unitstyle" : 5,
							"parameter_linknames" : 1
						}

					}
,
					"textcolor" : [ 0.4274509804, 0.8327725118, 1.0, 1.0 ],
					"tricolor" : [ 0.764706, 0.764706, 0.764706, 1.0 ],
					"tricolor2" : [ 0.647059, 0.647059, 0.647059, 1.0 ],
					"varname" : "select start"
				}

			}
, 			{
				"box" : 				{
					"fontname" : "Ableton Sans Medium",
					"fontsize" : 8.0,
					"hidden" : 1,
					"id" : "obj-192",
					"maxclass" : "comment",
					"numinlets" : 1,
					"numoutlets" : 0,
					"patching_rect" : [ 1525.8333740234375, 887.933357059955597, 81.0, 16.0 ],
					"presentation" : 1,
					"presentation_rect" : [ 234.33331298828125, 71.0, 83.0, 16.0 ],
					"text" : "Drop Carrier Sample",
					"textcolor" : [ 1.0, 1.0, 1.0, 1.0 ]
				}

			}
, 			{
				"box" : 				{
					"id" : "obj-24",
					"maxclass" : "newobj",
					"numinlets" : 1,
					"numoutlets" : 1,
					"outlettype" : [ "" ],
					"patching_rect" : [ 1071.808316148817539, 663.600001990795135, 122.0, 20.0 ],
					"text" : "expr pow($f1/100.\\, 2)"
				}

			}
, 			{
				"box" : 				{
					"id" : "obj-23",
					"maxclass" : "message",
					"numinlets" : 2,
					"numoutlets" : 1,
					"outlettype" : [ "" ],
					"patching_rect" : [ 1071.808316148817539, 728.000001311302185, 49.0, 20.0 ],
					"text" : "slew $1"
				}

			}
, 			{
				"box" : 				{
					"id" : "obj-21",
					"maxclass" : "newobj",
					"numinlets" : 6,
					"numoutlets" : 1,
					"outlettype" : [ "" ],
					"patching_rect" : [ 1071.808316148817539, 697.00000125169754, 107.0, 20.0 ],
					"text" : "scale 0. 1. 3. 3000"
				}

			}
, 			{
				"box" : 				{
					"id" : "obj-20",
					"maxclass" : "message",
					"numinlets" : 2,
					"numoutlets" : 1,
					"outlettype" : [ "" ],
					"patching_rect" : [ 1200.83331298828125, 663.600001990795135, 49.0, 20.0 ],
					"text" : "slew $1"
				}

			}
, 			{
				"box" : 				{
					"activedialcolor" : [ 0.4274509804, 0.8327725118, 1.0, 1.0 ],
					"activefgdialcolor" : [ 0.156863, 0.156863, 0.156863, 1.0 ],
					"activeneedlecolor" : [ 0.156863, 0.156863, 0.156863, 1.0 ],
					"bordercolor" : [ 0.352941, 0.352941, 0.352941, 1.0 ],
					"dialcolor" : [ 0.764706, 0.764706, 0.764706, 1.0 ],
					"fgdialcolor" : [ 0.411765, 0.411765, 0.411765, 1.0 ],
					"focusbordercolor" : [ 0.313725, 0.313725, 0.313725, 1.0 ],
					"id" : "obj-14",
					"maxclass" : "live.dial",
					"needlecolor" : [ 0.411765, 0.411765, 0.411765, 1.0 ],
					"numinlets" : 1,
					"numoutlets" : 2,
					"outlettype" : [ "", "float" ],
					"panelcolor" : [ 0.647059, 0.647059, 0.647059, 1.0 ],
					"parameter_enable" : 1,
					"patching_rect" : [ 1071.808316148817539, 540.5, 41.0, 48.0 ],
					"presentation" : 1,
					"presentation_rect" : [ 248.0, 115.0, 41.0, 48.0 ],
					"saved_attribute_attributes" : 					{
						"valueof" : 						{
							"parameter_longname" : "slew",
							"parameter_initial_enable" : 1,
							"parameter_invisible" : 2,
							"parameter_mmax" : 100.0,
							"parameter_initial" : [ 0 ],
							"parameter_shortname" : "slew",
							"parameter_type" : 0,
							"parameter_unitstyle" : 5,
							"parameter_linknames" : 1
						}

					}
,
					"textcolor" : [ 0.835294117647059, 0.83921568627451, 0.894117647058824, 1.0 ],
					"tricolor" : [ 0.156863, 0.156863, 0.156863, 1.0 ],
					"varname" : "slew"
				}

			}
, 			{
				"box" : 				{
					"id" : "obj-13",
					"maxclass" : "newobj",
					"numinlets" : 1,
					"numoutlets" : 2,
					"outlettype" : [ "int", "bang" ],
					"patching_rect" : [ 58.933319091796875, 514.499999701976776, 29.5, 20.0 ],
					"text" : "t i b"
				}

			}
, 			{
				"box" : 				{
					"id" : "obj-18",
					"maxclass" : "newobj",
					"numinlets" : 2,
					"numoutlets" : 1,
					"outlettype" : [ "float" ],
					"patching_rect" : [ 757.183313891291618, 523.0, 39.0, 20.0 ],
					"text" : "/ 100."
				}

			}
, 			{
				"box" : 				{
					"color" : [ 0.960784, 0.827451, 0.156863, 1.0 ],
					"id" : "obj-9",
					"maxclass" : "newobj",
					"numinlets" : 1,
					"numoutlets" : 1,
					"outlettype" : [ "" ],
					"patching_rect" : [ 1019.966624975204468, 817.600022435188293, 260.0, 20.0 ],
					"saved_object_attributes" : 					{
						"filename" : "starling_sampler_window",
						"parameter_enable" : 0
					}
,
					"text" : "js starling_sampler_window ---window_sampler"
				}

			}
, 			{
				"box" : 				{
					"color" : [ 1.0, 1.0, 1.0, 1.0 ],
					"id" : "obj-2",
					"maxclass" : "newobj",
					"numinlets" : 1,
					"numoutlets" : 2,
					"outlettype" : [ "float", "bang" ],
					"patching_rect" : [ 1019.966624975204468, 847.933357059955597, 175.0, 20.0 ],
					"text" : "buffer~ ---window_sampler -1 2"
				}

			}
, 			{
				"box" : 				{
					"id" : "obj-7",
					"maxclass" : "newobj",
					"numinlets" : 1,
					"numoutlets" : 2,
					"outlettype" : [ "bang", "bang" ],
					"patching_rect" : [ 218.333311975002289, 655.0, 29.5, 20.0 ],
					"text" : "b"
				}

			}
, 			{
				"box" : 				{
					"id" : "obj-1",
					"maxclass" : "newobj",
					"numinlets" : 1,
					"numoutlets" : 1,
					"outlettype" : [ "signal" ],
					"patching_rect" : [ 218.333311975002289, 710.666728019714355, 39.0, 20.0 ],
					"text" : "click~"
				}

			}
, 			{
				"box" : 				{
					"comment" : "",
					"id" : "obj-17",
					"index" : 3,
					"maxclass" : "outlet",
					"numinlets" : 1,
					"numoutlets" : 0,
					"patching_rect" : [ 766.199983723958212, 962.466685116291046, 30.0, 30.0 ]
				}

			}
, 			{
				"box" : 				{
					"comment" : "",
					"id" : "obj-16",
					"index" : 2,
					"maxclass" : "outlet",
					"numinlets" : 1,
					"numoutlets" : 0,
					"patching_rect" : [ 634.23331909179683, 962.466685116291046, 30.0, 30.0 ]
				}

			}
, 			{
				"box" : 				{
					"comment" : "",
					"id" : "obj-15",
					"index" : 1,
					"maxclass" : "outlet",
					"numinlets" : 1,
					"numoutlets" : 0,
					"patching_rect" : [ 502.133312988281261, 962.466685116291046, 30.0, 30.0 ]
				}

			}
, 			{
				"box" : 				{
					"comment" : "",
					"id" : "obj-12",
					"index" : 1,
					"maxclass" : "inlet",
					"numinlets" : 0,
					"numoutlets" : 1,
					"outlettype" : [ "int" ],
					"patching_rect" : [ 58.933319091796875, 414.999968886375427, 30.0, 30.0 ]
				}

			}
, 			{
				"box" : 				{
					"comment" : "",
					"id" : "obj-5",
					"index" : 4,
					"maxclass" : "outlet",
					"numinlets" : 1,
					"numoutlets" : 0,
					"patching_rect" : [ 1246.1666259765625, 701.000001311302185, 30.0, 30.0 ]
				}

			}
, 			{
				"box" : 				{
					"comment" : "",
					"id" : "obj-4",
					"index" : 2,
					"maxclass" : "inlet",
					"numinlets" : 0,
					"numoutlets" : 1,
					"outlettype" : [ "" ],
					"patching_rect" : [ 631.33331298828125, 322.333324432373047, 30.0, 30.0 ]
				}

			}
, 			{
				"box" : 				{
					"fontsize" : 10.0,
					"id" : "obj-142",
					"maxclass" : "message",
					"numinlets" : 2,
					"numoutlets" : 1,
					"outlettype" : [ "" ],
					"patching_rect" : [ 945.958315245807171, 461.000001430511475, 74.0, 20.0 ],
					"text" : "carrier_end $1"
				}

			}
, 			{
				"box" : 				{
					"fontsize" : 10.0,
					"id" : "obj-123",
					"maxclass" : "message",
					"numinlets" : 2,
					"numoutlets" : 1,
					"outlettype" : [ "" ],
					"patching_rect" : [ 883.033314794301987, 461.000001430511475, 61.0, 20.0 ],
					"text" : "carrier_s $1"
				}

			}
, 			{
				"box" : 				{
					"fontsize" : 10.0,
					"id" : "obj-137",
					"maxclass" : "message",
					"numinlets" : 2,
					"numoutlets" : 1,
					"outlettype" : [ "" ],
					"patching_rect" : [ 605.33331298828125, 84.0, 28.0, 20.0 ],
					"text" : "0"
				}

			}
, 			{
				"box" : 				{
					"fontsize" : 10.0,
					"id" : "obj-132",
					"maxclass" : "newobj",
					"numinlets" : 2,
					"numoutlets" : 2,
					"outlettype" : [ "bang", "" ],
					"patching_rect" : [ 605.33331298828125, 56.0, 67.0, 20.0 ],
					"text" : "sel waveform"
				}

			}
, 			{
				"box" : 				{
					"id" : "obj-187",
					"maxclass" : "newobj",
					"numinlets" : 2,
					"numoutlets" : 2,
					"outlettype" : [ "bang", "" ],
					"patching_rect" : [ 104.933319091796875, 585.666696727275848, 35.0, 20.0 ],
					"text" : "sel 0"
				}

			}
, 			{
				"box" : 				{
					"id" : "obj-165",
					"maxclass" : "newobj",
					"numinlets" : 6,
					"numoutlets" : 1,
					"outlettype" : [ "" ],
					"patching_rect" : [ 120.933319091796875, 621.666666209697723, 98.0, 20.0 ],
					"text" : "scale 0 127 0. 1."
				}

			}
, 			{
				"box" : 				{
					"id" : "obj-160",
					"maxclass" : "newobj",
					"numinlets" : 1,
					"numoutlets" : 1,
					"outlettype" : [ "" ],
					"patching_rect" : [ 58.933319091796875, 710.666728019714355, 113.0, 20.0 ],
					"text" : "expr pow(2\\, $f1/12)"
				}

			}
, 			{
				"box" : 				{
					"id" : "obj-159",
					"maxclass" : "newobj",
					"numinlets" : 2,
					"numoutlets" : 1,
					"outlettype" : [ "int" ],
					"patching_rect" : [ 58.933319091796875, 585.666696727275848, 29.5, 20.0 ],
					"text" : "- 60"
				}

			}
, 			{
				"box" : 				{
					"id" : "obj-156",
					"maxclass" : "message",
					"numinlets" : 2,
					"numoutlets" : 1,
					"outlettype" : [ "" ],
					"patching_rect" : [ 120.933319091796875, 655.0, 42.0, 20.0 ],
					"text" : "vel $1"
				}

			}
, 			{
				"box" : 				{
					"id" : "obj-144",
					"maxclass" : "message",
					"numinlets" : 2,
					"numoutlets" : 1,
					"outlettype" : [ "" ],
					"patching_rect" : [ 58.933319091796875, 738.333333671092987, 52.0, 20.0 ],
					"text" : "pitch $1"
				}

			}
, 			{
				"box" : 				{
					"id" : "obj-119",
					"maxclass" : "comment",
					"numinlets" : 1,
					"numoutlets" : 0,
					"patching_rect" : [ 446.33331298828125, 835.500030517578125, 58.0, 18.0 ],
					"text" : "Sampler"
				}

			}
, 			{
				"box" : 				{
					"fontsize" : 10.0,
					"id" : "obj-30",
					"maxclass" : "message",
					"numinlets" : 2,
					"numoutlets" : 1,
					"outlettype" : [ "" ],
					"patching_rect" : [ 568.0, 84.0, 28.0, 20.0 ],
					"text" : "0"
				}

			}
, 			{
				"box" : 				{
					"fontsize" : 10.0,
					"id" : "obj-38",
					"maxclass" : "message",
					"numinlets" : 2,
					"numoutlets" : 1,
					"outlettype" : [ "" ],
					"patching_rect" : [ 520.0, 84.0, 28.0, 20.0 ],
					"text" : "1"
				}

			}
, 			{
				"box" : 				{
					"fontsize" : 10.0,
					"id" : "obj-40",
					"maxclass" : "newobj",
					"numinlets" : 2,
					"numoutlets" : 2,
					"outlettype" : [ "bang", "" ],
					"patching_rect" : [ 520.0, 56.0, 67.0, 20.0 ],
					"text" : "sel waveform"
				}

			}
, 			{
				"box" : 				{
					"fontsize" : 10.0,
					"id" : "obj-44",
					"maxclass" : "newobj",
					"numinlets" : 2,
					"numoutlets" : 1,
					"outlettype" : [ "" ],
					"patching_rect" : [ 446.33331298828125, 145.0714111328125, 46.0, 20.0 ],
					"text" : "gate 1 0"
				}

			}
, 			{
				"box" : 				{
					"fontsize" : 10.0,
					"id" : "obj-50",
					"maxclass" : "newobj",
					"numinlets" : 1,
					"numoutlets" : 4,
					"outlettype" : [ "", "", "", "" ],
					"patching_rect" : [ 520.0, 28.5714111328125, 148.0, 20.0 ],
					"saved_object_attributes" : 					{
						"mode" : 0
					}
,
					"text" : "hover"
				}

			}
, 			{
				"box" : 				{
					"fontsize" : 10.0,
					"id" : "obj-26",
					"maxclass" : "newobj",
					"numinlets" : 2,
					"numoutlets" : 1,
					"outlettype" : [ "int" ],
					"patching_rect" : [ 446.33331298828125, 197.333343505859375, 27.0, 20.0 ],
					"text" : "int"
				}

			}
, 			{
				"box" : 				{
					"fontsize" : 10.0,
					"id" : "obj-191",
					"maxclass" : "message",
					"numinlets" : 2,
					"numoutlets" : 1,
					"outlettype" : [ "" ],
					"patching_rect" : [ 1525.8333740234375, 855.933357059955597, 52.0, 20.0 ],
					"text" : "hidden $1"
				}

			}
, 			{
				"box" : 				{
					"bordercolor" : [ 0.501960784313725, 0.501960784313725, 0.501960784313725, 0.0 ],
					"id" : "obj-193",
					"ignoreclick" : 1,
					"maxclass" : "dropfile",
					"numinlets" : 1,
					"numoutlets" : 2,
					"outlettype" : [ "", "" ],
					"patching_rect" : [ 1410.8333740234375, 364.733339846134186, 82.0, 20.266660153865814 ],
					"presentation" : 1,
					"presentation_rect" : [ 7.20001220703125, 5.0, 328.333343505859375, 84.666664123535156 ]
				}

			}
, 			{
				"box" : 				{
					"fontsize" : 10.0,
					"id" : "obj-52",
					"maxclass" : "newobj",
					"numinlets" : 1,
					"numoutlets" : 1,
					"outlettype" : [ "" ],
					"patching_rect" : [ 1551.3333740234375, 808.933357059955597, 61.0, 20.0 ],
					"text" : "loadmess 0"
				}

			}
, 			{
				"box" : 				{
					"fontsize" : 10.0,
					"id" : "obj-33",
					"maxclass" : "newobj",
					"numinlets" : 9,
					"numoutlets" : 9,
					"outlettype" : [ "", "", "", "", "", "", "", "", "" ],
					"patching_rect" : [ 631.33331298828125, 365.0, 522.400003612041473, 20.0 ],
					"text" : "route atk rel l_fade gain carrier_s carrier_e slew sample_path"
				}

			}
, 			{
				"box" : 				{
					"id" : "obj-62",
					"maxclass" : "message",
					"numinlets" : 2,
					"numoutlets" : 1,
					"outlettype" : [ "" ],
					"patching_rect" : [ 972.000000178813934, 535.0, 59.0, 20.0 ],
					"text" : "l_fade $1"
				}

			}
, 			{
				"box" : 				{
					"fontsize" : 10.0,
					"id" : "obj-54",
					"maxclass" : "message",
					"numinlets" : 2,
					"numoutlets" : 1,
					"outlettype" : [ "" ],
					"patching_rect" : [ 1246.1666259765625, 470.0, 80.0, 20.0 ],
					"text" : "sample_path $1"
				}

			}
, 			{
				"box" : 				{
					"fontsize" : 10.0,
					"id" : "obj-56",
					"maxclass" : "newobj",
					"numinlets" : 1,
					"numoutlets" : 1,
					"outlettype" : [ "" ],
					"patching_rect" : [ 1410.8333740234375, 420.5, 49.0, 20.0 ],
					"text" : "tosymbol"
				}

			}
, 			{
				"box" : 				{
					"color" : [ 0.701961, 0.415686, 0.886275, 1.0 ],
					"fontsize" : 10.0,
					"id" : "obj-194",
					"maxclass" : "newobj",
					"numinlets" : 1,
					"numoutlets" : 1,
					"outlettype" : [ "" ],
					"patching_rect" : [ 1525.8333740234375, 577.5, 46.0, 20.0 ],
					"text" : "deferlow"
				}

			}
, 			{
				"box" : 				{
					"activebgcolor" : [ 0.196078431372549, 0.196078431372549, 0.196078431372549, 0.0 ],
					"bordercolor" : [ 0.117647058823529, 0.117647058823529, 0.117647058823529, 0.0 ],
					"focusbordercolor" : [ 0.117647058823529, 0.117647058823529, 0.117647058823529, 0.0 ],
					"fontsize" : 8.0,
					"id" : "obj-195",
					"ignoreclick" : 1,
					"maxclass" : "live.numbox",
					"numinlets" : 1,
					"numoutlets" : 2,
					"outlettype" : [ "", "float" ],
					"parameter_enable" : 1,
					"patching_rect" : [ 104.933319091796875, 560.0, 39.0, 13.0 ],
					"presentation" : 1,
					"presentation_rect" : [ 72.583335310220718, 10.416664123535156, 27.0, 13.0 ],
					"saved_attribute_attributes" : 					{
						"valueof" : 						{
							"parameter_longname" : "live.numbox[2]",
							"parameter_invisible" : 2,
							"parameter_shortname" : "live.numbox",
							"parameter_type" : 0,
							"parameter_unitstyle" : 0
						}

					}
,
					"textcolor" : [ 1.0, 1.0, 1.0, 1.0 ],
					"varname" : "live.numbox[1]"
				}

			}
, 			{
				"box" : 				{
					"activebgcolor" : [ 0.196078431372549, 0.196078431372549, 0.196078431372549, 0.0 ],
					"bordercolor" : [ 0.117647058823529, 0.117647058823529, 0.117647058823529, 0.0 ],
					"focusbordercolor" : [ 0.117647058823529, 0.117647058823529, 0.117647058823529, 0.0 ],
					"fontsize" : 8.0,
					"id" : "obj-196",
					"ignoreclick" : 1,
					"maxclass" : "live.numbox",
					"numinlets" : 1,
					"numoutlets" : 2,
					"outlettype" : [ "", "float" ],
					"parameter_enable" : 1,
					"patching_rect" : [ 58.933319091796875, 560.0, 44.0, 13.0 ],
					"presentation" : 1,
					"presentation_rect" : [ 35.166667938232422, 9.5, 29.0, 13.0 ],
					"saved_attribute_attributes" : 					{
						"valueof" : 						{
							"parameter_longname" : "live.numbox[3]",
							"parameter_invisible" : 2,
							"parameter_shortname" : "live.numbox",
							"parameter_type" : 0,
							"parameter_unitstyle" : 8
						}

					}
,
					"textcolor" : [ 1.0, 1.0, 1.0, 1.0 ],
					"varname" : "live.numbox"
				}

			}
, 			{
				"box" : 				{
					"fontname" : "Ableton Sans Medium",
					"fontsize" : 8.0,
					"id" : "obj-197",
					"maxclass" : "comment",
					"numinlets" : 1,
					"numoutlets" : 0,
					"patching_rect" : [ 177.13330078125, 276.733343183994293, 35.0, 16.0 ],
					"presentation" : 1,
					"presentation_rect" : [ 58.749999046325684, 8.666664123535156, 35.0, 16.0 ],
					"text" : "vel :",
					"textcolor" : [ 1.0, 1.0, 1.0, 1.0 ]
				}

			}
, 			{
				"box" : 				{
					"fontname" : "Ableton Sans Medium",
					"fontsize" : 8.0,
					"id" : "obj-198",
					"maxclass" : "comment",
					"numinlets" : 1,
					"numoutlets" : 0,
					"patching_rect" : [ 133.933319091796875, 276.733343183994293, 32.0, 16.0 ],
					"presentation" : 1,
					"presentation_rect" : [ 15.166666984558105, 9.0, 32.0, 16.0 ],
					"text" : "note :",
					"textcolor" : [ 1.0, 1.0, 1.0, 1.0 ]
				}

			}
, 			{
				"box" : 				{
					"angle" : 270.0,
					"bgcolor" : [ 0.32156862745098, 0.341176470588235, 0.368627450980392, 0.6 ],
					"bordercolor" : [ 0.196078431372549, 0.188235294117647, 0.2, 0.0 ],
					"id" : "obj-199",
					"maxclass" : "panel",
					"mode" : 0,
					"numinlets" : 1,
					"numoutlets" : 0,
					"patching_rect" : [ 125.933319091796875, 261.733343183994293, 100.5, 38.0 ],
					"presentation" : 1,
					"presentation_rect" : [ 11.666666984558105, 8.5, 89.916668325662613, 16.0 ],
					"proportion" : 0.5,
					"rounded" : 20
				}

			}
, 			{
				"box" : 				{
					"fontsize" : 10.0,
					"id" : "obj-27",
					"maxclass" : "message",
					"numinlets" : 2,
					"numoutlets" : 1,
					"outlettype" : [ "" ],
					"patching_rect" : [ 1413.733375012874603, 697.000030517578125, 31.0, 20.0 ],
					"text" : "clear"
				}

			}
, 			{
				"box" : 				{
					"fontsize" : 10.0,
					"id" : "obj-25",
					"maxclass" : "newobj",
					"numinlets" : 1,
					"numoutlets" : 1,
					"outlettype" : [ "" ],
					"patching_rect" : [ 1342.733375012874603, 697.000030517578125, 62.0, 20.0 ],
					"text" : "prepend set"
				}

			}
, 			{
				"box" : 				{
					"fontsize" : 10.0,
					"id" : "obj-200",
					"maxclass" : "newobj",
					"numinlets" : 2,
					"numoutlets" : 2,
					"outlettype" : [ "", "" ],
					"patching_rect" : [ 1342.733375012874603, 667.000030517578125, 84.0, 20.0 ],
					"text" : "zl.reg"
				}

			}
, 			{
				"box" : 				{
					"fontsize" : 10.0,
					"id" : "obj-201",
					"maxclass" : "newobj",
					"numinlets" : 1,
					"numoutlets" : 1,
					"outlettype" : [ "" ],
					"patching_rect" : [ 1407.733375012874603, 630.500030517578125, 61.0, 20.0 ],
					"text" : "fromsymbol"
				}

			}
, 			{
				"box" : 				{
					"fontsize" : 10.0,
					"id" : "obj-11",
					"maxclass" : "newobj",
					"numinlets" : 2,
					"numoutlets" : 2,
					"outlettype" : [ "", "" ],
					"patching_rect" : [ 1378.733375012874603, 603.000030517578125, 48.0, 20.0 ],
					"text" : "zl.ecils 1"
				}

			}
, 			{
				"box" : 				{
					"fontsize" : 10.0,
					"id" : "obj-202",
					"maxclass" : "newobj",
					"numinlets" : 1,
					"numoutlets" : 1,
					"outlettype" : [ "" ],
					"patching_rect" : [ 1378.733375012874603, 577.5, 121.0, 20.0 ],
					"text" : "fromsymbol @separator /"
				}

			}
, 			{
				"box" : 				{
					"bgcolor" : [ 0.325490196078431, 0.345098039215686, 0.372549019607843, 0.6 ],
					"bordercolor" : [ 0.349019607843137, 0.349019607843137, 0.349019607843137, 0.0 ],
					"fontname" : "Ableton Sans Medium",
					"fontsize" : 8.0,
					"id" : "obj-203",
					"ignoreclick" : 1,
					"maxclass" : "textedit",
					"numinlets" : 1,
					"numoutlets" : 4,
					"outlettype" : [ "", "int", "", "" ],
					"parameter_enable" : 1,
					"patching_rect" : [ 1342.733375012874603, 738.333333671092987, 171.0, 16.0 ],
					"presentation" : 1,
					"presentation_rect" : [ 216.0, 71.166664123535156, 117.0, 16.0 ],
					"rounded" : 15.0,
					"saved_attribute_attributes" : 					{
						"valueof" : 						{
							"parameter_longname" : "textedit[1]",
							"parameter_invisible" : 1,
							"parameter_initial" : [ " " ],
							"parameter_shortname" : "textedit",
							"parameter_type" : 3
						}

					}
,
					"textjustification" : 1,
					"varname" : "textedit",
					"wordwrap" : 0
				}

			}
, 			{
				"box" : 				{
					"color" : [ 0.92549, 0.364706, 0.341176, 1.0 ],
					"fontname" : "Arial",
					"fontsize" : 10.0,
					"id" : "obj-205",
					"maxclass" : "newobj",
					"numinlets" : 0,
					"numoutlets" : 2,
					"outlettype" : [ "", "bang" ],
					"patcher" : 					{
						"fileversion" : 1,
						"appversion" : 						{
							"major" : 8,
							"minor" : 0,
							"revision" : 4,
							"architecture" : "x64",
							"modernui" : 1
						}
,
						"classnamespace" : "box",
						"rect" : [ 124.0, 283.0, 752.0, 745.0 ],
						"bglocked" : 0,
						"openinpresentation" : 0,
						"default_fontsize" : 10.0,
						"default_fontface" : 0,
						"default_fontname" : "Arial",
						"gridonopen" : 1,
						"gridsize" : [ 15.0, 15.0 ],
						"gridsnaponopen" : 1,
						"objectsnaponopen" : 1,
						"statusbarvisible" : 2,
						"toolbarvisible" : 1,
						"lefttoolbarpinned" : 0,
						"toptoolbarpinned" : 0,
						"righttoolbarpinned" : 0,
						"bottomtoolbarpinned" : 0,
						"toolbars_unpinned_last_save" : 0,
						"tallnewobj" : 0,
						"boxanimatetime" : 200,
						"enablehscroll" : 1,
						"enablevscroll" : 1,
						"devicewidth" : 0.0,
						"description" : "",
						"digest" : "",
						"tags" : "",
						"style" : "",
						"subpatcher_template" : "",
						"boxes" : [ 							{
								"box" : 								{
									"id" : "obj-13",
									"maxclass" : "newobj",
									"numinlets" : 1,
									"numoutlets" : 2,
									"outlettype" : [ "int", "bang" ],
									"patching_rect" : [ 402.0, 417.5714111328125, 29.5, 20.0 ],
									"text" : "t 0 b"
								}

							}
, 							{
								"box" : 								{
									"comment" : "",
									"id" : "obj-33",
									"index" : 2,
									"maxclass" : "outlet",
									"numinlets" : 1,
									"numoutlets" : 0,
									"patching_rect" : [ 412.5, 458.0, 25.0, 25.0 ]
								}

							}
, 							{
								"box" : 								{
									"id" : "obj-32",
									"maxclass" : "newobj",
									"numinlets" : 2,
									"numoutlets" : 2,
									"outlettype" : [ "bang", "" ],
									"patching_rect" : [ 402.0, 386.5714111328125, 30.0, 20.0 ],
									"text" : "sel 1"
								}

							}
, 							{
								"box" : 								{
									"id" : "obj-27",
									"maxclass" : "newobj",
									"numinlets" : 2,
									"numoutlets" : 1,
									"outlettype" : [ "int" ],
									"patching_rect" : [ 402.0, 356.5714111328125, 29.5, 20.0 ],
									"text" : ">= 2"
								}

							}
, 							{
								"box" : 								{
									"id" : "obj-26",
									"maxclass" : "newobj",
									"numinlets" : 2,
									"numoutlets" : 2,
									"outlettype" : [ "", "" ],
									"patching_rect" : [ 402.0, 328.5714111328125, 32.0, 20.0 ],
									"text" : "zl.len"
								}

							}
, 							{
								"box" : 								{
									"id" : "obj-19",
									"maxclass" : "newobj",
									"numinlets" : 2,
									"numoutlets" : 1,
									"outlettype" : [ "" ],
									"patching_rect" : [ 402.0, 301.5714111328125, 56.0, 20.0 ],
									"text" : "thresh 250"
								}

							}
, 							{
								"box" : 								{
									"id" : "obj-12",
									"maxclass" : "newobj",
									"numinlets" : 2,
									"numoutlets" : 2,
									"outlettype" : [ "bang", "" ],
									"patching_rect" : [ 391.0, 272.5714111328125, 30.0, 20.0 ],
									"text" : "sel 0"
								}

							}
, 							{
								"box" : 								{
									"id" : "obj-11",
									"maxclass" : "newobj",
									"numinlets" : 1,
									"numoutlets" : 1,
									"outlettype" : [ "" ],
									"patching_rect" : [ 391.0, 207.5714111328125, 70.0, 20.0 ],
									"text" : "loadmess poll"
								}

							}
, 							{
								"box" : 								{
									"id" : "obj-4",
									"maxclass" : "newobj",
									"numinlets" : 1,
									"numoutlets" : 5,
									"outlettype" : [ "int", "int", "int", "int", "int" ],
									"patching_rect" : [ 391.0, 236.5714111328125, 61.0, 20.0 ],
									"text" : "mousestate"
								}

							}
, 							{
								"box" : 								{
									"fontname" : "Arial",
									"fontsize" : 12.0,
									"id" : "obj-31",
									"maxclass" : "newobj",
									"numinlets" : 2,
									"numoutlets" : 1,
									"outlettype" : [ "int" ],
									"patching_rect" : [ 190.5, 142.0, 35.0, 22.0 ],
									"text" : "1"
								}

							}
, 							{
								"box" : 								{
									"fontname" : "Arial",
									"fontsize" : 12.0,
									"id" : "obj-30",
									"maxclass" : "newobj",
									"numinlets" : 2,
									"numoutlets" : 1,
									"outlettype" : [ "int" ],
									"patching_rect" : [ 133.0, 142.0, 35.0, 22.0 ],
									"text" : "2"
								}

							}
, 							{
								"box" : 								{
									"fontname" : "Arial",
									"fontsize" : 12.0,
									"id" : "obj-29",
									"maxclass" : "newobj",
									"numinlets" : 1,
									"numoutlets" : 1,
									"outlettype" : [ "bang" ],
									"patching_rect" : [ 64.0, 334.5714111328125, 61.0, 22.0 ],
									"text" : "loadbang"
								}

							}
, 							{
								"box" : 								{
									"fontname" : "Arial",
									"fontsize" : 12.0,
									"id" : "obj-28",
									"maxclass" : "newobj",
									"numinlets" : 3,
									"numoutlets" : 1,
									"outlettype" : [ "" ],
									"patching_rect" : [ 257.21875, 206.0, 60.9296875, 22.0 ],
									"text" : "switch"
								}

							}
, 							{
								"box" : 								{
									"fontname" : "Arial",
									"fontsize" : 12.0,
									"id" : "obj-25",
									"maxclass" : "newobj",
									"numinlets" : 3,
									"numoutlets" : 3,
									"outlettype" : [ "bang", "bang", "" ],
									"patching_rect" : [ 133.0, 109.0, 134.0, 22.0 ],
									"text" : "sel macintosh windows"
								}

							}
, 							{
								"box" : 								{
									"color" : [ 0.439216, 0.74902, 0.254902, 1.0 ],
									"fontname" : "Arial",
									"fontsize" : 12.0,
									"id" : "obj-22",
									"maxclass" : "newobj",
									"numinlets" : 0,
									"numoutlets" : 1,
									"outlettype" : [ "" ],
									"patching_rect" : [ 133.0, 77.0, 89.0, 22.0 ],
									"text" : "r ---_getsystem"
								}

							}
, 							{
								"box" : 								{
									"fontname" : "Arial",
									"fontsize" : 12.0,
									"id" : "obj-21",
									"linecount" : 2,
									"maxclass" : "message",
									"numinlets" : 2,
									"numoutlets" : 1,
									"outlettype" : [ "" ],
									"patching_rect" : [ 64.0, 377.5714111328125, 166.0, 35.0 ],
									"text" : ";\rmax getsystem ---_getsystem"
								}

							}
, 							{
								"box" : 								{
									"fontname" : "Arial",
									"fontsize" : 12.0,
									"id" : "obj-1",
									"maxclass" : "newobj",
									"numinlets" : 2,
									"numoutlets" : 1,
									"outlettype" : [ "int" ],
									"patching_rect" : [ 257.21875, 377.5714111328125, 29.5, 22.0 ],
									"text" : "i 0"
								}

							}
, 							{
								"box" : 								{
									"fontname" : "Arial",
									"fontsize" : 12.0,
									"id" : "obj-10",
									"maxclass" : "newobj",
									"numinlets" : 1,
									"numoutlets" : 5,
									"outlettype" : [ "int", "int", "int", "int", "int" ],
									"patching_rect" : [ 234.25, 142.0, 105.53125, 22.0 ],
									"text" : "modifiers 100"
								}

							}
, 							{
								"box" : 								{
									"coll_data" : 									{
										"count" : 4,
										"data" : [ 											{
												"key" : 0,
												"value" : [ "mode", "select" ]
											}
, 											{
												"key" : 1,
												"value" : [ "mode", "loop" ]
											}
, 											{
												"key" : 2,
												"value" : [ "mode", "move" ]
											}
, 											{
												"key" : 3,
												"value" : [ "mode", "draw" ]
											}
 ]
									}
,
									"fontname" : "Arial",
									"fontsize" : 12.0,
									"id" : "obj-2",
									"maxclass" : "newobj",
									"numinlets" : 1,
									"numoutlets" : 4,
									"outlettype" : [ "", "", "", "" ],
									"patching_rect" : [ 257.21875, 417.5714111328125, 62.0, 22.0 ],
									"saved_object_attributes" : 									{
										"embed" : 1
									}
,
									"text" : "coll"
								}

							}
, 							{
								"box" : 								{
									"fontname" : "Arial",
									"fontsize" : 12.0,
									"id" : "obj-3",
									"maxclass" : "newobj",
									"numinlets" : 2,
									"numoutlets" : 1,
									"outlettype" : [ "int" ],
									"patching_rect" : [ 257.21875, 268.5714111328125, 32.0, 22.0 ],
									"text" : "|"
								}

							}
, 							{
								"box" : 								{
									"fontname" : "Arial",
									"fontsize" : 12.0,
									"id" : "obj-5",
									"maxclass" : "newobj",
									"numinlets" : 2,
									"numoutlets" : 1,
									"outlettype" : [ "int" ],
									"patching_rect" : [ 320.78125, 206.0, 36.0, 22.0 ],
									"text" : "<< 1"
								}

							}
, 							{
								"box" : 								{
									"fontname" : "Arial",
									"fontsize" : 12.0,
									"id" : "obj-6",
									"maxclass" : "newobj",
									"numinlets" : 1,
									"numoutlets" : 3,
									"outlettype" : [ "", "int", "int" ],
									"patching_rect" : [ 257.21875, 301.5714111328125, 51.0, 22.0 ],
									"text" : "change"
								}

							}
, 							{
								"box" : 								{
									"fontname" : "Arial",
									"fontsize" : 12.0,
									"id" : "obj-7",
									"maxclass" : "newobj",
									"numinlets" : 3,
									"numoutlets" : 3,
									"outlettype" : [ "bang", "bang", "" ],
									"patching_rect" : [ 257.21875, 334.5714111328125, 76.78125, 22.0 ],
									"text" : "select 0 3"
								}

							}
, 							{
								"box" : 								{
									"fontname" : "Arial",
									"fontsize" : 12.0,
									"id" : "obj-8",
									"maxclass" : "newobj",
									"numinlets" : 2,
									"numoutlets" : 1,
									"outlettype" : [ "" ],
									"patching_rect" : [ 257.21875, 236.5714111328125, 82.5625, 22.0 ],
									"text" : "pak"
								}

							}
, 							{
								"box" : 								{
									"comment" : "",
									"id" : "obj-9",
									"index" : 1,
									"maxclass" : "outlet",
									"numinlets" : 1,
									"numoutlets" : 0,
									"patching_rect" : [ 257.21875, 458.0, 25.0, 25.0 ]
								}

							}
 ],
						"lines" : [ 							{
								"patchline" : 								{
									"destination" : [ "obj-2", 0 ],
									"source" : [ "obj-1", 0 ]
								}

							}
, 							{
								"patchline" : 								{
									"destination" : [ "obj-28", 2 ],
									"source" : [ "obj-10", 3 ]
								}

							}
, 							{
								"patchline" : 								{
									"destination" : [ "obj-28", 1 ],
									"source" : [ "obj-10", 2 ]
								}

							}
, 							{
								"patchline" : 								{
									"destination" : [ "obj-5", 0 ],
									"source" : [ "obj-10", 4 ]
								}

							}
, 							{
								"patchline" : 								{
									"destination" : [ "obj-4", 0 ],
									"source" : [ "obj-11", 0 ]
								}

							}
, 							{
								"patchline" : 								{
									"destination" : [ "obj-19", 0 ],
									"source" : [ "obj-12", 1 ]
								}

							}
, 							{
								"patchline" : 								{
									"destination" : [ "obj-33", 0 ],
									"source" : [ "obj-13", 1 ]
								}

							}
, 							{
								"patchline" : 								{
									"destination" : [ "obj-9", 0 ],
									"midpoints" : [ 411.5, 448.5, 266.71875, 448.5 ],
									"source" : [ "obj-13", 0 ]
								}

							}
, 							{
								"patchline" : 								{
									"destination" : [ "obj-26", 0 ],
									"source" : [ "obj-19", 0 ]
								}

							}
, 							{
								"patchline" : 								{
									"destination" : [ "obj-9", 0 ],
									"source" : [ "obj-2", 0 ]
								}

							}
, 							{
								"patchline" : 								{
									"destination" : [ "obj-25", 0 ],
									"source" : [ "obj-22", 0 ]
								}

							}
, 							{
								"patchline" : 								{
									"destination" : [ "obj-30", 0 ],
									"source" : [ "obj-25", 0 ]
								}

							}
, 							{
								"patchline" : 								{
									"destination" : [ "obj-31", 0 ],
									"source" : [ "obj-25", 1 ]
								}

							}
, 							{
								"patchline" : 								{
									"destination" : [ "obj-27", 0 ],
									"source" : [ "obj-26", 0 ]
								}

							}
, 							{
								"patchline" : 								{
									"destination" : [ "obj-32", 0 ],
									"source" : [ "obj-27", 0 ]
								}

							}
, 							{
								"patchline" : 								{
									"destination" : [ "obj-8", 0 ],
									"source" : [ "obj-28", 0 ]
								}

							}
, 							{
								"patchline" : 								{
									"destination" : [ "obj-1", 0 ],
									"midpoints" : [ 73.5, 364.5714111328125, 266.71875, 364.5714111328125 ],
									"order" : 0,
									"source" : [ "obj-29", 0 ]
								}

							}
, 							{
								"patchline" : 								{
									"destination" : [ "obj-21", 0 ],
									"order" : 1,
									"source" : [ "obj-29", 0 ]
								}

							}
, 							{
								"patchline" : 								{
									"destination" : [ "obj-6", 0 ],
									"source" : [ "obj-3", 0 ]
								}

							}
, 							{
								"patchline" : 								{
									"destination" : [ "obj-28", 0 ],
									"midpoints" : [ 142.5, 192.0, 266.71875, 192.0 ],
									"source" : [ "obj-30", 0 ]
								}

							}
, 							{
								"patchline" : 								{
									"destination" : [ "obj-28", 0 ],
									"midpoints" : [ 200.0, 182.0, 266.71875, 182.0 ],
									"source" : [ "obj-31", 0 ]
								}

							}
, 							{
								"patchline" : 								{
									"destination" : [ "obj-13", 0 ],
									"source" : [ "obj-32", 0 ]
								}

							}
, 							{
								"patchline" : 								{
									"destination" : [ "obj-12", 0 ],
									"source" : [ "obj-4", 0 ]
								}

							}
, 							{
								"patchline" : 								{
									"destination" : [ "obj-8", 1 ],
									"source" : [ "obj-5", 0 ]
								}

							}
, 							{
								"patchline" : 								{
									"destination" : [ "obj-7", 0 ],
									"source" : [ "obj-6", 0 ]
								}

							}
, 							{
								"patchline" : 								{
									"destination" : [ "obj-1", 0 ],
									"source" : [ "obj-7", 0 ]
								}

							}
, 							{
								"patchline" : 								{
									"destination" : [ "obj-2", 0 ],
									"midpoints" : [ 324.5, 405.5714111328125, 266.71875, 405.5714111328125 ],
									"source" : [ "obj-7", 2 ]
								}

							}
, 							{
								"patchline" : 								{
									"destination" : [ "obj-3", 0 ],
									"source" : [ "obj-8", 0 ]
								}

							}
 ]
					}
,
					"patching_rect" : [ 394.33331298828125, 56.0, 98.0, 20.0 ],
					"saved_object_attributes" : 					{
						"description" : "",
						"digest" : "",
						"fontsize" : 10.0,
						"globalpatchername" : "",
						"tags" : ""
					}
,
					"text" : "p w_hack"
				}

			}
, 			{
				"box" : 				{
					"id" : "obj-108",
					"maxclass" : "message",
					"numinlets" : 2,
					"numoutlets" : 1,
					"outlettype" : [ "" ],
					"patching_rect" : [ 766.333325195312455, 901.800048828125, 44.0, 20.0 ],
					"text" : "line $1"
				}

			}
, 			{
				"box" : 				{
					"id" : "obj-106",
					"maxclass" : "newobj",
					"numinlets" : 2,
					"numoutlets" : 1,
					"outlettype" : [ "float" ],
					"patching_rect" : [ 766.333325195312455, 874.800048828125, 81.0, 20.0 ],
					"text" : "snapshot~ 50"
				}

			}
, 			{
				"box" : 				{
					"id" : "obj-105",
					"maxclass" : "comment",
					"numinlets" : 1,
					"numoutlets" : 0,
					"patching_rect" : [ 125.933319091796875, 303.666675806045532, 188.0, 18.0 ],
					"text" : "velocity and pitchBend are empty."
				}

			}
, 			{
				"box" : 				{
					"id" : "obj-103",
					"maxclass" : "newobj",
					"numinlets" : 1,
					"numoutlets" : 1,
					"outlettype" : [ "" ],
					"patching_rect" : [ 820.908314354717731, 523.0, 40.0, 20.0 ],
					"text" : "dbtoa"
				}

			}
, 			{
				"box" : 				{
					"id" : "obj-96",
					"maxclass" : "message",
					"numinlets" : 2,
					"numoutlets" : 1,
					"outlettype" : [ "" ],
					"patching_rect" : [ 820.908314354717731, 554.5, 49.0, 20.0 ],
					"text" : "gain $1"
				}

			}
, 			{
				"box" : 				{
					"activedialcolor" : [ 0.4274509804, 0.8327725118, 1.0, 1.0 ],
					"id" : "obj-97",
					"maxclass" : "live.dial",
					"numinlets" : 1,
					"numoutlets" : 2,
					"outlettype" : [ "", "float" ],
					"parameter_enable" : 1,
					"patching_rect" : [ 820.108314342796803, 416.5, 41.0, 48.0 ],
					"presentation" : 1,
					"presentation_rect" : [ 295.20001220703125, 115.0, 41.0, 48.0 ],
					"saved_attribute_attributes" : 					{
						"valueof" : 						{
							"parameter_mmin" : -12.0,
							"parameter_longname" : "gain[1]",
							"parameter_initial_enable" : 1,
							"parameter_invisible" : 2,
							"parameter_mmax" : 12.0,
							"parameter_initial" : [ 0 ],
							"parameter_shortname" : "gain",
							"parameter_type" : 0,
							"parameter_unitstyle" : 4,
							"parameter_linknames" : 1
						}

					}
,
					"textcolor" : [ 0.835294117647059, 0.83921568627451, 0.894117647058824, 1.0 ],
					"varname" : "gain"
				}

			}
, 			{
				"box" : 				{
					"fontsize" : 10.0,
					"id" : "obj-91",
					"maxclass" : "message",
					"numinlets" : 2,
					"numoutlets" : 1,
					"outlettype" : [ "" ],
					"patching_rect" : [ 1658.3333740234375, 765.000030517578125, 58.0, 20.0 ],
					"text" : "channel $1"
				}

			}
, 			{
				"box" : 				{
					"fontsize" : 10.0,
					"id" : "obj-88",
					"maxclass" : "newobj",
					"numinlets" : 1,
					"numoutlets" : 9,
					"outlettype" : [ "float", "list", "float", "float", "float", "float", "float", "", "int" ],
					"patching_rect" : [ 1551.3333740234375, 735.000030517578125, 126.0, 20.0 ],
					"text" : "info~ ---buf_carrierSample"
				}

			}
, 			{
				"box" : 				{
					"fontsize" : 10.0,
					"id" : "obj-87",
					"maxclass" : "newobj",
					"numinlets" : 2,
					"numoutlets" : 2,
					"outlettype" : [ "float", "int" ],
					"patching_rect" : [ 548.533312988281295, 512.500001430511475, 63.0, 20.0 ],
					"text" : "maximum 1."
				}

			}
, 			{
				"box" : 				{
					"id" : "obj-85",
					"maxclass" : "message",
					"numinlets" : 2,
					"numoutlets" : 1,
					"outlettype" : [ "" ],
					"patching_rect" : [ 757.183313891291618, 554.5, 49.0, 20.0 ],
					"text" : "fade $1"
				}

			}
, 			{
				"box" : 				{
					"activedialcolor" : [ 0.4274509804, 0.8327725118, 1.0, 1.0 ],
					"id" : "obj-86",
					"maxclass" : "live.dial",
					"numinlets" : 1,
					"numoutlets" : 2,
					"outlettype" : [ "", "float" ],
					"parameter_enable" : 1,
					"patching_rect" : [ 757.183313891291618, 416.5, 41.0, 48.0 ],
					"presentation" : 1,
					"presentation_rect" : [ 116.800003051757812, 115.0, 41.0, 48.0 ],
					"saved_attribute_attributes" : 					{
						"valueof" : 						{
							"parameter_longname" : "l fade[1]",
							"parameter_initial_enable" : 1,
							"parameter_invisible" : 2,
							"parameter_mmax" : 100.0,
							"parameter_initial" : [ 5 ],
							"parameter_shortname" : "l fade",
							"parameter_type" : 0,
							"parameter_unitstyle" : 5,
							"parameter_linknames" : 1
						}

					}
,
					"textcolor" : [ 0.835294117647059, 0.83921568627451, 0.894117647058824, 1.0 ],
					"varname" : "l fade”"
				}

			}
, 			{
				"box" : 				{
					"fontsize" : 10.0,
					"id" : "obj-82",
					"maxclass" : "newobj",
					"numinlets" : 2,
					"numoutlets" : 1,
					"outlettype" : [ "float" ],
					"patching_rect" : [ 548.533312988281295, 486.000001430511475, 29.5, 20.0 ],
					"text" : "!- 0."
				}

			}
, 			{
				"box" : 				{
					"fontsize" : 10.0,
					"id" : "obj-81",
					"maxclass" : "newobj",
					"numinlets" : 2,
					"numoutlets" : 1,
					"outlettype" : [ "" ],
					"patching_rect" : [ 548.533312988281295, 461.000001430511475, 47.0, 20.0 ],
					"text" : "pak 0. 0."
				}

			}
, 			{
				"box" : 				{
					"id" : "obj-76",
					"maxclass" : "message",
					"numinlets" : 2,
					"numoutlets" : 1,
					"outlettype" : [ "" ],
					"patching_rect" : [ 252.33331298828125, 621.666666209697723, 65.0, 20.0 ],
					"text" : "noteOn $1"
				}

			}
, 			{
				"box" : 				{
					"id" : "obj-67",
					"maxclass" : "newobj",
					"numinlets" : 1,
					"numoutlets" : 3,
					"outlettype" : [ "", "int", "int" ],
					"patching_rect" : [ 252.33331298828125, 585.666696727275848, 58.0, 20.0 ],
					"text" : "change 0"
				}

			}
, 			{
				"box" : 				{
					"id" : "obj-66",
					"maxclass" : "newobj",
					"numinlets" : 2,
					"numoutlets" : 1,
					"outlettype" : [ "int" ],
					"patching_rect" : [ 252.33331298828125, 555.0, 29.5, 20.0 ],
					"text" : "> 0"
				}

			}
, 			{
				"box" : 				{
					"id" : "obj-63",
					"maxclass" : "newobj",
					"numinlets" : 1,
					"numoutlets" : 8,
					"outlettype" : [ "", "", "", "int", "int", "", "int", "" ],
					"patching_rect" : [ 58.933319091796875, 452.999999403953552, 92.5, 20.0 ],
					"text" : "midiparse"
				}

			}
, 			{
				"box" : 				{
					"id" : "obj-61",
					"maxclass" : "newobj",
					"numinlets" : 2,
					"numoutlets" : 2,
					"outlettype" : [ "int", "int" ],
					"patching_rect" : [ 58.933319091796875, 483.999999403953552, 212.399993896484375, 20.0 ],
					"text" : "ddg.mono @legatomode 1"
				}

			}
, 			{
				"box" : 				{
					"id" : "obj-46",
					"maxclass" : "message",
					"numinlets" : 2,
					"numoutlets" : 1,
					"outlettype" : [ "" ],
					"patching_rect" : [ 693.933313071727753, 470.0, 39.0, 20.0 ],
					"text" : "rel $1"
				}

			}
, 			{
				"box" : 				{
					"id" : "obj-45",
					"maxclass" : "message",
					"numinlets" : 2,
					"numoutlets" : 1,
					"outlettype" : [ "" ],
					"patching_rect" : [ 630.333325195312455, 470.0, 41.0, 20.0 ],
					"text" : "atk $1"
				}

			}
, 			{
				"box" : 				{
					"activedialcolor" : [ 0.4274509804, 0.8327725118, 1.0, 1.0 ],
					"id" : "obj-43",
					"maxclass" : "live.dial",
					"numinlets" : 1,
					"numoutlets" : 2,
					"outlettype" : [ "", "float" ],
					"parameter_enable" : 1,
					"patching_rect" : [ 693.933313071727753, 416.5, 41.0, 48.0 ],
					"presentation" : 1,
					"presentation_rect" : [ 64.400001525878906, 115.0, 41.0, 48.0 ],
					"saved_attribute_attributes" : 					{
						"valueof" : 						{
							"parameter_mmin" : 3.0,
							"parameter_exponent" : 2.5,
							"parameter_longname" : "rel[1]",
							"parameter_initial_enable" : 1,
							"parameter_invisible" : 2,
							"parameter_mmax" : 3000.0,
							"parameter_initial" : [ 5 ],
							"parameter_shortname" : "rel",
							"parameter_type" : 0,
							"parameter_unitstyle" : 2,
							"parameter_linknames" : 1
						}

					}
,
					"textcolor" : [ 0.835294117647059, 0.83921568627451, 0.894117647058824, 1.0 ],
					"varname" : "rel"
				}

			}
, 			{
				"box" : 				{
					"activedialcolor" : [ 0.4274509804, 0.8327725118, 1.0, 1.0 ],
					"id" : "obj-206",
					"maxclass" : "live.dial",
					"numinlets" : 1,
					"numoutlets" : 2,
					"outlettype" : [ "", "float" ],
					"parameter_enable" : 1,
					"patching_rect" : [ 631.33331298828125, 416.5, 41.0, 48.0 ],
					"presentation" : 1,
					"presentation_rect" : [ 12.0, 115.0, 41.0, 48.0 ],
					"saved_attribute_attributes" : 					{
						"valueof" : 						{
							"parameter_mmin" : 3.0,
							"parameter_exponent" : 2.5,
							"parameter_longname" : "atk[1]",
							"parameter_initial_enable" : 1,
							"parameter_invisible" : 2,
							"parameter_mmax" : 3000.0,
							"parameter_initial" : [ 5 ],
							"parameter_shortname" : "atk",
							"parameter_type" : 0,
							"parameter_unitstyle" : 2,
							"parameter_linknames" : 1
						}

					}
,
					"textcolor" : [ 0.835294117647059, 0.83921568627451, 0.894117647058824, 1.0 ],
					"varname" : "atk"
				}

			}
, 			{
				"box" : 				{
					"id" : "obj-36",
					"maxclass" : "newobj",
					"numinlets" : 1,
					"numoutlets" : 1,
					"outlettype" : [ "bang" ],
					"patching_rect" : [ 836.0, 647.400000512599945, 59.0, 20.0 ],
					"text" : "loadbang"
				}

			}
, 			{
				"box" : 				{
					"id" : "obj-35",
					"linecount" : 2,
					"maxclass" : "message",
					"numinlets" : 2,
					"numoutlets" : 1,
					"outlettype" : [ "" ],
					"patching_rect" : [ 836.0, 682.000030517578125, 183.0, 31.0 ],
					"text" : "buf_samp ---buf_carrierSample, buf_win ---window_sampler"
				}

			}
, 			{
				"box" : 				{
					"id" : "obj-32",
					"maxclass" : "message",
					"numinlets" : 2,
					"numoutlets" : 1,
					"outlettype" : [ "" ],
					"patching_rect" : [ 548.533312988281295, 540.5, 41.0, 20.0 ],
					"text" : "len $1"
				}

			}
, 			{
				"box" : 				{
					"id" : "obj-31",
					"maxclass" : "message",
					"numinlets" : 2,
					"numoutlets" : 1,
					"outlettype" : [ "" ],
					"patching_rect" : [ 502.133312988281261, 613.0, 50.0, 20.0 ],
					"text" : "start $1"
				}

			}
, 			{
				"box" : 				{
					"color" : [ 0.960784, 0.827451, 0.156863, 1.0 ],
					"fontsize" : 20.0,
					"id" : "obj-29",
					"maxclass" : "newobj",
					"numinlets" : 1,
					"numoutlets" : 3,
					"outlettype" : [ "signal", "signal", "signal" ],
					"patcher" : 					{
						"fileversion" : 1,
						"appversion" : 						{
							"major" : 8,
							"minor" : 0,
							"revision" : 4,
							"architecture" : "x64",
							"modernui" : 1
						}
,
						"classnamespace" : "dsp.gen",
						"rect" : [ -81.0, -1270.0, 1181.0, 1121.0 ],
						"bglocked" : 0,
						"openinpresentation" : 0,
						"default_fontsize" : 12.0,
						"default_fontface" : 0,
						"default_fontname" : "Arial",
						"gridonopen" : 1,
						"gridsize" : [ 15.0, 15.0 ],
						"gridsnaponopen" : 1,
						"objectsnaponopen" : 1,
						"statusbarvisible" : 2,
						"toolbarvisible" : 1,
						"lefttoolbarpinned" : 0,
						"toptoolbarpinned" : 0,
						"righttoolbarpinned" : 0,
						"bottomtoolbarpinned" : 0,
						"toolbars_unpinned_last_save" : 0,
						"tallnewobj" : 0,
						"boxanimatetime" : 200,
						"enablehscroll" : 1,
						"enablevscroll" : 1,
						"devicewidth" : 0.0,
						"description" : "",
						"digest" : "",
						"tags" : "",
						"style" : "",
						"subpatcher_template" : "",
						"boxes" : [ 							{
								"box" : 								{
									"id" : "obj-10",
									"maxclass" : "newobj",
									"numinlets" : 1,
									"numoutlets" : 0,
									"patching_rect" : [ 745.0, 1054.0, 35.0, 22.0 ],
									"text" : "out 3"
								}

							}
, 							{
								"box" : 								{
									"code" : "//rampsmooth function\r\nrampsmooth(sig, up, dw, diffBuf){\r\n\t\r\n\tHistory hisSig(0);\r\n\t\r\n\tdelIn = delta(sig);\r\n\t\r\n\trampAmtUp = maximum(latch(mstosamps(up), delIn), 1);\r\n\trampAmtDw = maximum(latch(mstosamps(dw), delIn), 1);\r\n\t\r\n\toverLimitUp = plusequals(1, delIn) < rampAmtUp;\r\n\toverLimitDw = plusequals(1, delIn) < rampAmtDw;\r\n\t\r\n\t\r\n\tif(delIn>0){\r\n\t\tpoke(diffBuf, latch(sig-hisSig, delIn)/rampAmtUp, 0, 0);\r\n\t\tpoke(diffBuf, 0, 0, 1);\r\n\t}\r\n\telse if(delIn<0){\r\n\t\tpoke(diffBuf, latch(sig-hisSig, delIn)/rampAmtDw, 0, 0);\r\n\t\tpoke(diffBuf, 1, 0, 1);\r\n\t}\r\n\t\r\n\tsum = mix(overLimitUp, overLimitDw, peek(diffBuf, 0, 1))*peek(diffBuf, 0, 0) + hisSig;\r\n\t\r\n\thisSig = sum;\r\n\treturn sum;\r\n}\r\n\r\n//===============================================================================================\t\r\n\r\nParam start(0);\r\nParam len(0);\r\nParam atk(0);\r\nParam rel(0);\r\nParam loop(1);\r\nParam gain(0);\r\nParam noteOn(0);\r\nParam fade(0, min = 0.005);\r\nParam channel(0);\r\nParam gain(1);\r\nParam pitch(0);\r\nParam vel(0);\r\nParam slew(0);\r\n\r\nHistory his_gain(0);\r\nHistory his_vel(0);\r\nHistory winCout(0);\r\n\r\nData buf_rampNoteOn(2, 2);\r\nData buf_rampPitch(2, 2);\r\nData buf_sampleLen(1, 2);\r\nData buf_sampleStart(1, 2);\r\nData buf_fade(1, 2);\r\n\r\nBuffer buf_samp(\"buf_carrierSample\");\r\nBuffer buf_win(\"window_buf\");\r\n\r\nhis_gain = his_gain + (gain - his_gain)*0.0005;\r\nhis_vel = his_vel + (vel - his_vel)*0.0005;\r\nrampPitch = rampsmooth(pitch, slew, slew, buf_rampPitch);\r\n\r\n//transition window size\r\nwinSize = 4096;\r\n\r\n// atk & rel\r\nrampNoteOn = rampsmooth(noteOn, atk, rel, buf_rampNoteOn);\r\n\r\n// set 2voices\r\nif(change(noteOn) == 1 || winCout == 0){\r\n\tlenSamps_1 = mstosamps(len);\r\n\tpoke(buf_sampleStart, mstosamps(start), 0, 0);\r\n\tpoke(buf_sampleLen, lenSamps_1, 0, 0);\r\n\tpoke(buf_fade, fade/2, 0, 0);\r\n}\r\n\r\nif(change(noteOn) == 1 || winCout == winSize/2){\r\n\tlenSamps_2 = mstosamps(len);\r\n\tpoke(buf_sampleStart, mstosamps(start), 0, 1);\r\n\tpoke(buf_sampleLen, lenSamps_2, 0, 1);\r\n\tpoke(buf_fade, fade/2, 0, 1);\r\n}\r\n\r\n// counter setting\r\nmCout = counter(rampPitch, rampNoteOn < 0.0001, 0);\r\nwinCout = floor(mCout%winSize);\r\nsampleCout_1 = wrap(mCout, 0, peek(buf_sampleLen, 0, 0));\r\nsampleCout_2 = wrap(mCout, 0, peek(buf_sampleLen, 0, 1));\r\nwin_1 = peek(buf_win, winCout, 0);\r\nwin_2 = peek(buf_win, winCout, 1);\r\n\r\nsampleBufCout_1 = peek(buf_sampleStart, 0, 0) + sampleCout_1;\r\nsampleBufCout_2 = peek(buf_sampleStart, 0, 1) + sampleCout_2;\r\n\t\r\n//fade dsp section\r\nfadeInOut_1 = 0;\r\nthisLen_1 = peek(buf_sampleLen, 0, 0);\r\nthisFade_1 = peek(buf_fade, 0, 0);\r\nif(sampleCout_1 < thisLen_1*thisFade_1){\r\n\tfadeInOut_1 = sampleCout_1/(thisLen_1*thisFade_1);\r\n}\r\nelse if(sampleCout_1 < thisLen_1*(1 - thisFade_1)){\r\n\tfadeInOut_1 = 1;\r\n}\r\nelse{\r\n\tfadeInOut_1 = (thisLen_1 - sampleCout_1)/(thisLen_1*thisFade_1);\r\n}\r\n\r\nfadeInOut_2 = 0;\r\nthisLen_2 = peek(buf_sampleLen, 0, 1);\r\nthisFade_2 = peek(buf_fade, 0, 1);\r\nif(sampleCout_2 < thisLen_2*thisFade_2){\r\n\tfadeInOut_2 = sampleCout_2/(thisLen_2*thisFade_2);\r\n}\r\nelse if(sampleCout_2 < thisLen_2*(1 - thisFade_2)){\r\n\tfadeInOut_2 = 1;\r\n}\r\nelse{\r\n\tfadeInOut_2 = (thisLen_2 - sampleCout_2)/(thisLen_2*thisFade_2);\r\n}\r\n\r\n//output section (mono or stereo)\r\nif(channel == 1){\r\n\tmod = his_gain*his_vel*rampNoteOn;\r\n\tsampleOut_1 = peek(buf_samp, sampleBufCout_1, 0)*win_1*fadeInOut_1;\r\n\tsampleOut_2 = peek(buf_samp, sampleBufCout_2, 0)*win_2*fadeInOut_2;\r\n\toutput = (sampleOut_1 + sampleOut_2)*mod;\r\n\tout1 = output;\r\n\tout2 = output;\r\n}\r\nelse{\r\n\tmod = his_gain*his_vel*rampNoteOn;\r\n\tsampleOut_R_1 = peek(buf_samp, sampleBufCout_1, 0)*win_1*fadeInOut_1;\r\n\tsampleOut_L_1 = peek(buf_samp, sampleBufCout_1, 1)*win_1*fadeInOut_1;\r\n\tsampleOut_R_2 = peek(buf_samp, sampleBufCout_2, 0)*win_2*fadeInOut_2;\r\n\tsampleOut_L_2 = peek(buf_samp, sampleBufCout_2, 1)*win_2*fadeInOut_2;\r\n\t\r\n\toutput_R = (sampleOut_R_1 + sampleOut_R_2)*mod;\r\n\toutput_L = (sampleOut_L_1 + sampleOut_L_2)*mod;\r\n\r\n\tout1 = output_R;\r\n\tout2 = output_L;\r\n}\r\n\r\n//waveform indicator\t\r\nout3 = sampstoms(sampleBufCout_1);",
									"fontface" : 0,
									"fontname" : "Menlo",
									"fontsize" : 12.0,
									"id" : "obj-6",
									"maxclass" : "codebox",
									"numinlets" : 1,
									"numoutlets" : 3,
									"outlettype" : [ "", "", "" ],
									"patching_rect" : [ 10.0, 47.0, 754.0, 986.0 ]
								}

							}
, 							{
								"box" : 								{
									"id" : "obj-5",
									"maxclass" : "newobj",
									"numinlets" : 1,
									"numoutlets" : 0,
									"patching_rect" : [ 377.5, 1054.0, 35.0, 22.0 ],
									"text" : "out 2"
								}

							}
, 							{
								"box" : 								{
									"id" : "obj-1",
									"maxclass" : "newobj",
									"numinlets" : 0,
									"numoutlets" : 1,
									"outlettype" : [ "" ],
									"patching_rect" : [ 10.0, 9.0, 28.0, 22.0 ],
									"text" : "in 1"
								}

							}
, 							{
								"box" : 								{
									"id" : "obj-4",
									"maxclass" : "newobj",
									"numinlets" : 1,
									"numoutlets" : 0,
									"patching_rect" : [ 10.0, 1054.0, 35.0, 22.0 ],
									"text" : "out 1"
								}

							}
 ],
						"lines" : [ 							{
								"patchline" : 								{
									"destination" : [ "obj-6", 0 ],
									"source" : [ "obj-1", 0 ]
								}

							}
, 							{
								"patchline" : 								{
									"destination" : [ "obj-10", 0 ],
									"source" : [ "obj-6", 2 ]
								}

							}
, 							{
								"patchline" : 								{
									"destination" : [ "obj-4", 0 ],
									"source" : [ "obj-6", 0 ]
								}

							}
, 							{
								"patchline" : 								{
									"destination" : [ "obj-5", 0 ],
									"source" : [ "obj-6", 1 ]
								}

							}
 ]
					}
,
					"patching_rect" : [ 502.133312988281261, 830.000030517578125, 283.20001220703125, 31.0 ],
					"text" : "gen~"
				}

			}
, 			{
				"box" : 				{
					"fontsize" : 10.0,
					"id" : "obj-207",
					"maxclass" : "newobj",
					"numinlets" : 1,
					"numoutlets" : 1,
					"outlettype" : [ "" ],
					"patching_rect" : [ 1410.8333740234375, 513.300001442432404, 82.0, 20.0 ],
					"text" : "prepend replace"
				}

			}
, 			{
				"box" : 				{
					"fontsize" : 10.0,
					"id" : "obj-208",
					"maxclass" : "message",
					"numinlets" : 2,
					"numoutlets" : 1,
					"outlettype" : [ "" ],
					"patching_rect" : [ 353.33331298828125, 56.0, 36.0, 20.0 ],
					"text" : "set $1"
				}

			}
, 			{
				"box" : 				{
					"fontsize" : 10.0,
					"id" : "obj-209",
					"maxclass" : "newobj",
					"numinlets" : 1,
					"numoutlets" : 1,
					"outlettype" : [ "" ],
					"patching_rect" : [ 353.33331298828125, 28.0, 146.0, 20.0 ],
					"text" : "loadmess ---buf_carrierSample"
				}

			}
, 			{
				"box" : 				{
					"buffername" : "---buf_carrierSample",
					"gridcolor" : [ 0.349019607843137, 0.349019607843137, 0.349019607843137, 0.4 ],
					"id" : "obj-210",
					"labels" : 0,
					"maxclass" : "waveform~",
					"numinlets" : 5,
					"numoutlets" : 6,
					"outlettype" : [ "float", "float", "float", "float", "list", "" ],
					"patching_rect" : [ 353.33331298828125, 225.333343505859375, 391.0, 93.0 ],
					"presentation" : 1,
					"presentation_rect" : [ 12.0, 11.0, 319.0, 77.0 ],
					"ruler" : 0,
					"selectioncolor" : [ 0.929411764705882, 0.929411764705882, 0.352941176470588, 0.4 ],
					"setmode" : 3,
					"setunit" : 1,
					"varname" : "waveform",
					"vticks" : 0,
					"waveformcolor" : [ 0.807843137254902, 0.898039215686275, 0.909803921568627, 0.75 ]
				}

			}
, 			{
				"box" : 				{
					"fontsize" : 10.0,
					"id" : "obj-211",
					"maxclass" : "newobj",
					"numinlets" : 1,
					"numoutlets" : 2,
					"outlettype" : [ "int", "bang" ],
					"patching_rect" : [ 1525.8333740234375, 603.000030517578125, 44.5, 20.0 ],
					"text" : "t 1 b"
				}

			}
, 			{
				"box" : 				{
					"color" : [ 1.0, 1.0, 1.0, 1.0 ],
					"fontsize" : 10.0,
					"id" : "obj-212",
					"maxclass" : "newobj",
					"numinlets" : 1,
					"numoutlets" : 2,
					"outlettype" : [ "float", "bang" ],
					"patching_rect" : [ 1410.8333740234375, 545.800001740455627, 134.0, 20.0 ],
					"text" : "buffer~ ---buf_carrierSample"
				}

			}
, 			{
				"box" : 				{
					"angle" : 270.0,
					"bgcolor" : [ 0.196078431372549, 0.188235294117647, 0.2, 1.0 ],
					"border" : 6,
					"bordercolor" : [ 0.19771, 0.188048, 0.201856, 1.0 ],
					"id" : "obj-204",
					"maxclass" : "panel",
					"mode" : 0,
					"numinlets" : 1,
					"numoutlets" : 0,
					"patching_rect" : [ 232.183319091796875, 261.733343183994293, 38.0, 38.0 ],
					"presentation" : 1,
					"presentation_rect" : [ 7.20001220703125, 5.0, 329.0, 103.25 ],
					"proportion" : 0.5
				}

			}
 ],
		"lines" : [ 			{
				"patchline" : 				{
					"destination" : [ "obj-17", 0 ],
					"midpoints" : [ 227.833311975002289, 946.833367764949799, 775.699983723958212, 946.833367764949799 ],
					"source" : [ "obj-1", 0 ]
				}

			}
, 			{
				"patchline" : 				{
					"destination" : [ "obj-96", 0 ],
					"source" : [ "obj-103", 0 ]
				}

			}
, 			{
				"patchline" : 				{
					"destination" : [ "obj-108", 0 ],
					"source" : [ "obj-106", 0 ]
				}

			}
, 			{
				"patchline" : 				{
					"destination" : [ "obj-210", 0 ],
					"midpoints" : [ 775.833325195312455, 932.466638028621674, 50.033369898796082, 932.466638028621674, 50.033369898796082, 207.999969482421875, 362.83331298828125, 207.999969482421875 ],
					"source" : [ "obj-108", 0 ]
				}

			}
, 			{
				"patchline" : 				{
					"destination" : [ "obj-201", 0 ],
					"source" : [ "obj-11", 1 ]
				}

			}
, 			{
				"patchline" : 				{
					"destination" : [ "obj-63", 0 ],
					"source" : [ "obj-12", 0 ]
				}

			}
, 			{
				"patchline" : 				{
					"destination" : [ "obj-5", 0 ],
					"midpoints" : [ 892.533314794301987, 645.85000067949295, 1255.6666259765625, 645.85000067949295 ],
					"source" : [ "obj-123", 0 ]
				}

			}
, 			{
				"patchline" : 				{
					"destination" : [ "obj-195", 0 ],
					"midpoints" : [ 78.933319091796875, 542.749999850988388, 114.433319091796875, 542.749999850988388 ],
					"source" : [ "obj-13", 1 ]
				}

			}
, 			{
				"patchline" : 				{
					"destination" : [ "obj-196", 0 ],
					"source" : [ "obj-13", 0 ]
				}

			}
, 			{
				"patchline" : 				{
					"destination" : [ "obj-137", 0 ],
					"source" : [ "obj-132", 0 ]
				}

			}
, 			{
				"patchline" : 				{
					"destination" : [ "obj-44", 0 ],
					"midpoints" : [ 614.83331298828125, 131.53570556640625, 455.83331298828125, 131.53570556640625 ],
					"source" : [ "obj-137", 0 ]
				}

			}
, 			{
				"patchline" : 				{
					"destination" : [ "obj-20", 0 ],
					"midpoints" : [ 1081.308316148817539, 609.850001871585846, 1210.33331298828125, 609.850001871585846 ],
					"order" : 0,
					"source" : [ "obj-14", 0 ]
				}

			}
, 			{
				"patchline" : 				{
					"destination" : [ "obj-24", 0 ],
					"order" : 1,
					"source" : [ "obj-14", 0 ]
				}

			}
, 			{
				"patchline" : 				{
					"destination" : [ "obj-5", 0 ],
					"midpoints" : [ 955.458315245807171, 635.250000596046448, 1255.6666259765625, 635.250000596046448 ],
					"source" : [ "obj-142", 0 ]
				}

			}
, 			{
				"patchline" : 				{
					"destination" : [ "obj-29", 0 ],
					"midpoints" : [ 68.433319091796875, 769.733334124088287, 511.633312988281261, 769.733334124088287 ],
					"source" : [ "obj-144", 0 ]
				}

			}
, 			{
				"patchline" : 				{
					"destination" : [ "obj-29", 0 ],
					"midpoints" : [ 130.433319091796875, 690.06666624546051, 511.633312988281261, 690.06666624546051 ],
					"source" : [ "obj-156", 0 ]
				}

			}
, 			{
				"patchline" : 				{
					"destination" : [ "obj-160", 0 ],
					"source" : [ "obj-159", 0 ]
				}

			}
, 			{
				"patchline" : 				{
					"destination" : [ "obj-144", 0 ],
					"source" : [ "obj-160", 0 ]
				}

			}
, 			{
				"patchline" : 				{
					"destination" : [ "obj-156", 0 ],
					"source" : [ "obj-165", 0 ]
				}

			}
, 			{
				"patchline" : 				{
					"destination" : [ "obj-85", 0 ],
					"source" : [ "obj-18", 0 ]
				}

			}
, 			{
				"patchline" : 				{
					"destination" : [ "obj-165", 0 ],
					"order" : 1,
					"source" : [ "obj-187", 1 ]
				}

			}
, 			{
				"patchline" : 				{
					"destination" : [ "obj-7", 0 ],
					"midpoints" : [ 130.433319091796875, 615.000024318695068, 227.833311975002289, 615.000024318695068 ],
					"order" : 0,
					"source" : [ "obj-187", 1 ]
				}

			}
, 			{
				"patchline" : 				{
					"destination" : [ "obj-65", 0 ],
					"midpoints" : [ 586.033312988281295, 375.550002157688141, 408.83331298828125, 375.550002157688141 ],
					"order" : 1,
					"source" : [ "obj-19", 0 ]
				}

			}
, 			{
				"patchline" : 				{
					"destination" : [ "obj-81", 1 ],
					"order" : 0,
					"source" : [ "obj-19", 0 ]
				}

			}
, 			{
				"patchline" : 				{
					"destination" : [ "obj-192", 0 ],
					"source" : [ "obj-191", 0 ]
				}

			}
, 			{
				"patchline" : 				{
					"destination" : [ "obj-56", 0 ],
					"source" : [ "obj-193", 0 ]
				}

			}
, 			{
				"patchline" : 				{
					"destination" : [ "obj-211", 0 ],
					"source" : [ "obj-194", 0 ]
				}

			}
, 			{
				"patchline" : 				{
					"destination" : [ "obj-187", 0 ],
					"source" : [ "obj-195", 0 ]
				}

			}
, 			{
				"patchline" : 				{
					"destination" : [ "obj-159", 0 ],
					"source" : [ "obj-196", 0 ]
				}

			}
, 			{
				"patchline" : 				{
					"destination" : [ "obj-5", 0 ],
					"midpoints" : [ 1210.33331298828125, 692.600017130374908, 1255.6666259765625, 692.600017130374908 ],
					"source" : [ "obj-20", 0 ]
				}

			}
, 			{
				"patchline" : 				{
					"destination" : [ "obj-25", 0 ],
					"source" : [ "obj-200", 0 ]
				}

			}
, 			{
				"patchline" : 				{
					"destination" : [ "obj-200", 1 ],
					"source" : [ "obj-201", 0 ]
				}

			}
, 			{
				"patchline" : 				{
					"destination" : [ "obj-11", 0 ],
					"source" : [ "obj-202", 0 ]
				}

			}
, 			{
				"patchline" : 				{
					"destination" : [ "obj-210", 0 ],
					"midpoints" : [ 403.83331298828125, 209.333305358886719, 362.83331298828125, 209.333305358886719 ],
					"source" : [ "obj-205", 0 ]
				}

			}
, 			{
				"patchline" : 				{
					"destination" : [ "obj-44", 1 ],
					"source" : [ "obj-205", 1 ]
				}

			}
, 			{
				"patchline" : 				{
					"destination" : [ "obj-45", 0 ],
					"source" : [ "obj-206", 0 ]
				}

			}
, 			{
				"patchline" : 				{
					"destination" : [ "obj-212", 0 ],
					"source" : [ "obj-207", 0 ]
				}

			}
, 			{
				"patchline" : 				{
					"destination" : [ "obj-210", 0 ],
					"source" : [ "obj-208", 0 ]
				}

			}
, 			{
				"patchline" : 				{
					"destination" : [ "obj-208", 0 ],
					"source" : [ "obj-209", 0 ]
				}

			}
, 			{
				"patchline" : 				{
					"destination" : [ "obj-23", 0 ],
					"source" : [ "obj-21", 0 ]
				}

			}
, 			{
				"patchline" : 				{
					"destination" : [ "obj-19", 0 ],
					"source" : [ "obj-210", 3 ]
				}

			}
, 			{
				"patchline" : 				{
					"destination" : [ "obj-22", 0 ],
					"source" : [ "obj-210", 2 ]
				}

			}
, 			{
				"patchline" : 				{
					"destination" : [ "obj-191", 0 ],
					"source" : [ "obj-211", 0 ]
				}

			}
, 			{
				"patchline" : 				{
					"destination" : [ "obj-200", 0 ],
					"midpoints" : [ 1560.8333740234375, 661.5, 1352.233375012874603, 661.5 ],
					"order" : 1,
					"source" : [ "obj-211", 1 ]
				}

			}
, 			{
				"patchline" : 				{
					"destination" : [ "obj-3", 0 ],
					"midpoints" : [ 1560.8333740234375, 633.000030517578125, 1581.583343505859375, 633.000030517578125, 1581.583343505859375, 354.0, 1210.33331298828125, 354.0 ],
					"order" : 2,
					"source" : [ "obj-211", 1 ]
				}

			}
, 			{
				"patchline" : 				{
					"destination" : [ "obj-88", 0 ],
					"order" : 0,
					"source" : [ "obj-211", 1 ]
				}

			}
, 			{
				"patchline" : 				{
					"destination" : [ "obj-194", 0 ],
					"source" : [ "obj-212", 1 ]
				}

			}
, 			{
				"patchline" : 				{
					"destination" : [ "obj-31", 0 ],
					"order" : 1,
					"source" : [ "obj-22", 0 ]
				}

			}
, 			{
				"patchline" : 				{
					"destination" : [ "obj-69", 0 ],
					"midpoints" : [ 511.633312988281261, 365.950002014636993, 287.066563785076141, 365.950002014636993 ],
					"order" : 2,
					"source" : [ "obj-22", 0 ]
				}

			}
, 			{
				"patchline" : 				{
					"destination" : [ "obj-81", 0 ],
					"midpoints" : [ 511.633312988281261, 386.599968731403351, 558.033312988281295, 386.599968731403351 ],
					"order" : 0,
					"source" : [ "obj-22", 0 ]
				}

			}
, 			{
				"patchline" : 				{
					"destination" : [ "obj-29", 0 ],
					"midpoints" : [ 1081.308316148817539, 749.500015258789062, 511.633312988281261, 749.500015258789062 ],
					"source" : [ "obj-23", 0 ]
				}

			}
, 			{
				"patchline" : 				{
					"destination" : [ "obj-21", 0 ],
					"source" : [ "obj-24", 0 ]
				}

			}
, 			{
				"patchline" : 				{
					"destination" : [ "obj-203", 0 ],
					"source" : [ "obj-25", 0 ]
				}

			}
, 			{
				"patchline" : 				{
					"destination" : [ "obj-210", 1 ],
					"source" : [ "obj-26", 0 ]
				}

			}
, 			{
				"patchline" : 				{
					"destination" : [ "obj-203", 0 ],
					"midpoints" : [ 1423.233375012874603, 726.5, 1352.233375012874603, 726.5 ],
					"source" : [ "obj-27", 0 ]
				}

			}
, 			{
				"patchline" : 				{
					"destination" : [ "obj-106", 0 ],
					"source" : [ "obj-29", 2 ]
				}

			}
, 			{
				"patchline" : 				{
					"destination" : [ "obj-15", 0 ],
					"source" : [ "obj-29", 0 ]
				}

			}
, 			{
				"patchline" : 				{
					"destination" : [ "obj-16", 0 ],
					"source" : [ "obj-29", 1 ]
				}

			}
, 			{
				"patchline" : 				{
					"destination" : [ "obj-37", 0 ],
					"midpoints" : [ 1210.33331298828125, 402.25, 892.533314794301987, 402.25 ],
					"source" : [ "obj-3", 0 ]
				}

			}
, 			{
				"patchline" : 				{
					"destination" : [ "obj-39", 0 ],
					"midpoints" : [ 1230.33331298828125, 409.25, 955.458315245807171, 409.25 ],
					"source" : [ "obj-3", 1 ]
				}

			}
, 			{
				"patchline" : 				{
					"destination" : [ "obj-44", 0 ],
					"midpoints" : [ 577.5, 125.369039177894592, 455.83331298828125, 125.369039177894592 ],
					"source" : [ "obj-30", 0 ]
				}

			}
, 			{
				"patchline" : 				{
					"destination" : [ "obj-29", 0 ],
					"source" : [ "obj-31", 0 ]
				}

			}
, 			{
				"patchline" : 				{
					"destination" : [ "obj-29", 0 ],
					"midpoints" : [ 558.033312988281295, 658.833302557468414, 511.633312988281261, 658.833302557468414 ],
					"source" : [ "obj-32", 0 ]
				}

			}
, 			{
				"patchline" : 				{
					"destination" : [ "obj-14", 0 ],
					"midpoints" : [ 1018.383315697312355, 459.450000882148743, 1081.308316148817539, 459.450000882148743 ],
					"source" : [ "obj-33", 6 ]
				}

			}
, 			{
				"patchline" : 				{
					"destination" : [ "obj-206", 0 ],
					"midpoints" : [ 640.83331298828125, 409.499969482421875, 640.83331298828125, 409.499969482421875 ],
					"source" : [ "obj-33", 0 ]
				}

			}
, 			{
				"patchline" : 				{
					"destination" : [ "obj-37", 0 ],
					"source" : [ "obj-33", 4 ]
				}

			}
, 			{
				"patchline" : 				{
					"destination" : [ "obj-39", 0 ],
					"source" : [ "obj-33", 5 ]
				}

			}
, 			{
				"patchline" : 				{
					"destination" : [ "obj-43", 0 ],
					"source" : [ "obj-33", 1 ]
				}

			}
, 			{
				"patchline" : 				{
					"destination" : [ "obj-56", 0 ],
					"midpoints" : [ 1081.308316148817539, 394.050000011920929, 1420.3333740234375, 394.050000011920929 ],
					"source" : [ "obj-33", 7 ]
				}

			}
, 			{
				"patchline" : 				{
					"destination" : [ "obj-86", 0 ],
					"source" : [ "obj-33", 2 ]
				}

			}
, 			{
				"patchline" : 				{
					"destination" : [ "obj-97", 0 ],
					"source" : [ "obj-33", 3 ]
				}

			}
, 			{
				"patchline" : 				{
					"destination" : [ "obj-29", 0 ],
					"midpoints" : [ 845.5, 739.999970853328705, 511.633312988281261, 739.999970853328705 ],
					"source" : [ "obj-35", 0 ]
				}

			}
, 			{
				"patchline" : 				{
					"destination" : [ "obj-35", 0 ],
					"order" : 1,
					"source" : [ "obj-36", 0 ]
				}

			}
, 			{
				"patchline" : 				{
					"destination" : [ "obj-9", 0 ],
					"midpoints" : [ 845.5, 673.933343112468719, 1029.466624975204468, 673.933343112468719 ],
					"order" : 0,
					"source" : [ "obj-36", 0 ]
				}

			}
, 			{
				"patchline" : 				{
					"destination" : [ "obj-123", 0 ],
					"order" : 1,
					"source" : [ "obj-37", 0 ]
				}

			}
, 			{
				"patchline" : 				{
					"destination" : [ "obj-48", 0 ],
					"midpoints" : [ 892.533314794301987, 438.699999988079071, 1159.399971649050713, 438.699999988079071, 1159.399971649050713, 237.800023138523102, 1179.066624820232391, 237.800023138523102 ],
					"order" : 0,
					"source" : [ "obj-37", 0 ]
				}

			}
, 			{
				"patchline" : 				{
					"destination" : [ "obj-44", 0 ],
					"midpoints" : [ 529.5, 120.03570556640625, 455.83331298828125, 120.03570556640625 ],
					"source" : [ "obj-38", 0 ]
				}

			}
, 			{
				"patchline" : 				{
					"destination" : [ "obj-142", 0 ],
					"order" : 1,
					"source" : [ "obj-39", 0 ]
				}

			}
, 			{
				"patchline" : 				{
					"destination" : [ "obj-57", 0 ],
					"midpoints" : [ 955.458315245807171, 447.50000011920929, 1284.945846971124411, 447.50000011920929, 1284.945846971124411, 237.800023138523102, 1300.8333740234375, 237.800023138523102 ],
					"order" : 0,
					"source" : [ "obj-39", 0 ]
				}

			}
, 			{
				"patchline" : 				{
					"destination" : [ "obj-33", 0 ],
					"source" : [ "obj-4", 0 ]
				}

			}
, 			{
				"patchline" : 				{
					"destination" : [ "obj-30", 0 ],
					"source" : [ "obj-40", 1 ]
				}

			}
, 			{
				"patchline" : 				{
					"destination" : [ "obj-38", 0 ],
					"source" : [ "obj-40", 0 ]
				}

			}
, 			{
				"patchline" : 				{
					"destination" : [ "obj-210", 2 ],
					"midpoints" : [ 1179.066624820232391, 308.333343207836151, 771.149967551231384, 308.333343207836151, 771.149967551231384, 206.733343362808228, 548.83331298828125, 206.733343362808228 ],
					"source" : [ "obj-41", 0 ]
				}

			}
, 			{
				"patchline" : 				{
					"destination" : [ "obj-46", 0 ],
					"source" : [ "obj-43", 0 ]
				}

			}
, 			{
				"patchline" : 				{
					"destination" : [ "obj-26", 0 ],
					"source" : [ "obj-44", 0 ]
				}

			}
, 			{
				"patchline" : 				{
					"destination" : [ "obj-29", 0 ],
					"midpoints" : [ 639.833325195312455, 678.499969482421875, 511.633312988281261, 678.499969482421875 ],
					"order" : 1,
					"source" : [ "obj-45", 0 ]
				}

			}
, 			{
				"patchline" : 				{
					"destination" : [ "obj-5", 0 ],
					"midpoints" : [ 639.833325195312455, 513.10001528263092, 1255.6666259765625, 513.10001528263092 ],
					"order" : 0,
					"source" : [ "obj-45", 0 ]
				}

			}
, 			{
				"patchline" : 				{
					"destination" : [ "obj-29", 0 ],
					"midpoints" : [ 703.433313071727753, 690.499969482421875, 511.633312988281261, 690.499969482421875 ],
					"order" : 1,
					"source" : [ "obj-46", 0 ]
				}

			}
, 			{
				"patchline" : 				{
					"destination" : [ "obj-5", 0 ],
					"midpoints" : [ 703.433313071727753, 501.500015258789062, 1255.6666259765625, 501.500015258789062 ],
					"order" : 0,
					"source" : [ "obj-46", 0 ]
				}

			}
, 			{
				"patchline" : 				{
					"destination" : [ "obj-41", 0 ],
					"source" : [ "obj-48", 0 ]
				}

			}
, 			{
				"patchline" : 				{
					"destination" : [ "obj-132", 0 ],
					"midpoints" : [ 615.5, 46.28570556640625, 614.83331298828125, 46.28570556640625 ],
					"source" : [ "obj-50", 2 ]
				}

			}
, 			{
				"patchline" : 				{
					"destination" : [ "obj-40", 0 ],
					"source" : [ "obj-50", 0 ]
				}

			}
, 			{
				"patchline" : 				{
					"destination" : [ "obj-191", 0 ],
					"midpoints" : [ 1560.8333740234375, 841.933326542377472, 1535.3333740234375, 841.933326542377472 ],
					"source" : [ "obj-52", 0 ]
				}

			}
, 			{
				"patchline" : 				{
					"destination" : [ "obj-5", 0 ],
					"midpoints" : [ 1255.6666259765625, 590.749984741210938, 1255.6666259765625, 590.749984741210938 ],
					"source" : [ "obj-54", 0 ]
				}

			}
, 			{
				"patchline" : 				{
					"destination" : [ "obj-202", 0 ],
					"midpoints" : [ 1420.3333740234375, 501.49999737739563, 1388.233375012874603, 501.49999737739563 ],
					"order" : 1,
					"source" : [ "obj-56", 0 ]
				}

			}
, 			{
				"patchline" : 				{
					"destination" : [ "obj-207", 0 ],
					"order" : 0,
					"source" : [ "obj-56", 0 ]
				}

			}
, 			{
				"patchline" : 				{
					"destination" : [ "obj-54", 0 ],
					"midpoints" : [ 1420.3333740234375, 461.5, 1255.6666259765625, 461.5 ],
					"order" : 2,
					"source" : [ "obj-56", 0 ]
				}

			}
, 			{
				"patchline" : 				{
					"destination" : [ "obj-58", 0 ],
					"source" : [ "obj-57", 0 ]
				}

			}
, 			{
				"patchline" : 				{
					"destination" : [ "obj-210", 3 ],
					"midpoints" : [ 1300.8333740234375, 317.13334333896637, 762.533340394496918, 317.13334333896637, 762.533340394496918, 214.333343505859375, 641.83331298828125, 214.333343505859375 ],
					"source" : [ "obj-58", 0 ]
				}

			}
, 			{
				"patchline" : 				{
					"destination" : [ "obj-13", 0 ],
					"source" : [ "obj-61", 0 ]
				}

			}
, 			{
				"patchline" : 				{
					"destination" : [ "obj-195", 0 ],
					"midpoints" : [ 261.83331298828125, 541.666574895381927, 114.433319091796875, 541.666574895381927 ],
					"order" : 1,
					"source" : [ "obj-61", 1 ]
				}

			}
, 			{
				"patchline" : 				{
					"destination" : [ "obj-66", 0 ],
					"order" : 0,
					"source" : [ "obj-61", 1 ]
				}

			}
, 			{
				"patchline" : 				{
					"destination" : [ "obj-5", 0 ],
					"midpoints" : [ 981.500000178813934, 626.950000703334808, 1255.6666259765625, 626.950000703334808 ],
					"source" : [ "obj-62", 0 ]
				}

			}
, 			{
				"patchline" : 				{
					"destination" : [ "obj-61", 0 ],
					"source" : [ "obj-63", 0 ]
				}

			}
, 			{
				"patchline" : 				{
					"destination" : [ "obj-72", 0 ],
					"source" : [ "obj-65", 0 ]
				}

			}
, 			{
				"patchline" : 				{
					"destination" : [ "obj-67", 0 ],
					"source" : [ "obj-66", 0 ]
				}

			}
, 			{
				"patchline" : 				{
					"destination" : [ "obj-76", 0 ],
					"source" : [ "obj-67", 0 ]
				}

			}
, 			{
				"patchline" : 				{
					"destination" : [ "obj-71", 0 ],
					"source" : [ "obj-69", 0 ]
				}

			}
, 			{
				"patchline" : 				{
					"destination" : [ "obj-1", 0 ],
					"source" : [ "obj-7", 0 ]
				}

			}
, 			{
				"patchline" : 				{
					"destination" : [ "obj-37", 0 ],
					"midpoints" : [ 287.066563785076141, 483.5, 533.799939289689064, 483.5, 533.799939289689064, 405.5, 892.533314794301987, 405.5 ],
					"source" : [ "obj-71", 0 ]
				}

			}
, 			{
				"patchline" : 				{
					"destination" : [ "obj-39", 0 ],
					"midpoints" : [ 408.83331298828125, 474.5, 522.14581411704421, 474.5, 522.14581411704421, 395.5, 955.458315245807171, 395.5 ],
					"source" : [ "obj-72", 0 ]
				}

			}
, 			{
				"patchline" : 				{
					"destination" : [ "obj-29", 0 ],
					"midpoints" : [ 261.83331298828125, 654.599968373775482, 511.633312988281261, 654.599968373775482 ],
					"source" : [ "obj-76", 0 ]
				}

			}
, 			{
				"patchline" : 				{
					"destination" : [ "obj-82", 0 ],
					"source" : [ "obj-81", 0 ]
				}

			}
, 			{
				"patchline" : 				{
					"destination" : [ "obj-87", 0 ],
					"source" : [ "obj-82", 0 ]
				}

			}
, 			{
				"patchline" : 				{
					"destination" : [ "obj-29", 0 ],
					"midpoints" : [ 766.683313891291618, 703.999969482421875, 511.633312988281261, 703.999969482421875 ],
					"source" : [ "obj-85", 0 ]
				}

			}
, 			{
				"patchline" : 				{
					"destination" : [ "obj-18", 0 ],
					"order" : 1,
					"source" : [ "obj-86", 0 ]
				}

			}
, 			{
				"patchline" : 				{
					"destination" : [ "obj-62", 0 ],
					"midpoints" : [ 766.683313891291618, 492.499969482421875, 981.500000178813934, 492.499969482421875 ],
					"order" : 0,
					"source" : [ "obj-86", 0 ]
				}

			}
, 			{
				"patchline" : 				{
					"destination" : [ "obj-32", 0 ],
					"source" : [ "obj-87", 0 ]
				}

			}
, 			{
				"patchline" : 				{
					"destination" : [ "obj-26", 1 ],
					"midpoints" : [ 1641.0833740234375, 824.800000250339508, 1776.000006914138794, 824.800000250339508, 1776.000006914138794, 170.333343505859375, 463.83331298828125, 170.333343505859375 ],
					"order" : 3,
					"source" : [ "obj-88", 6 ]
				}

			}
, 			{
				"patchline" : 				{
					"destination" : [ "obj-48", 1 ],
					"midpoints" : [ 1641.0833740234375, 804.200031101703644, 1757.275004386901855, 804.200031101703644, 1757.275004386901855, 219.200022995471954, 1207.066624820232391, 219.200022995471954 ],
					"order" : 1,
					"source" : [ "obj-88", 6 ]
				}

			}
, 			{
				"patchline" : 				{
					"destination" : [ "obj-57", 1 ],
					"midpoints" : [ 1641.0833740234375, 804.200031101703644, 1736.958377778530121, 804.200031101703644, 1736.958377778530121, 237.800023138523102, 1328.8333740234375, 237.800023138523102 ],
					"order" : 0,
					"source" : [ "obj-88", 6 ]
				}

			}
, 			{
				"patchline" : 				{
					"destination" : [ "obj-65", 1 ],
					"midpoints" : [ 1641.0833740234375, 1018.000030517578125, 20.458343505859375, 1018.000030517578125, 20.458343505859375, 393.999968886375427, 491.83331298828125, 393.999968886375427 ],
					"order" : 2,
					"source" : [ "obj-88", 6 ]
				}

			}
, 			{
				"patchline" : 				{
					"destination" : [ "obj-69", 1 ],
					"midpoints" : [ 1641.0833740234375, 998.000030517578125, 35.574968904256821, 998.000030517578125, 35.574968904256821, 403.999968886375427, 370.066563785076141, 403.999968886375427 ],
					"order" : 4,
					"source" : [ "obj-88", 6 ]
				}

			}
, 			{
				"patchline" : 				{
					"destination" : [ "obj-91", 0 ],
					"source" : [ "obj-88", 8 ]
				}

			}
, 			{
				"patchline" : 				{
					"destination" : [ "obj-29", 0 ],
					"midpoints" : [ 1667.8333740234375, 794.999969482421875, 511.633312988281261, 794.999969482421875 ],
					"source" : [ "obj-91", 0 ]
				}

			}
, 			{
				"patchline" : 				{
					"destination" : [ "obj-29", 0 ],
					"midpoints" : [ 830.408314354717731, 716.999969482421875, 511.633312988281261, 716.999969482421875 ],
					"source" : [ "obj-96", 0 ]
				}

			}
, 			{
				"patchline" : 				{
					"destination" : [ "obj-103", 0 ],
					"source" : [ "obj-97", 0 ]
				}

			}
 ],
		"styles" : [ 			{
				"name" : "AudioStatus_Menu",
				"default" : 				{
					"bgfillcolor" : 					{
						"type" : "color",
						"color" : [ 0.294118, 0.313726, 0.337255, 1 ],
						"color1" : [ 0.454902, 0.462745, 0.482353, 0.0 ],
						"color2" : [ 0.290196, 0.309804, 0.301961, 1.0 ],
						"angle" : 270.0,
						"proportion" : 0.39,
						"autogradient" : 0
					}

				}
,
				"parentstyle" : "",
				"multi" : 0
			}
 ]
	}

}
